<ttFont>
          <CharString index="0">
            764 6 callgsubr
            0 8 48 112 vvcurveto
            43 -1 53 -4 63 vhcurveto
            171 14 -69 callsubr
            154 13 rlineto
            17 -153 0 -89 0 vvcurveto
            -157 13 -124 -23 -126 hhcurveto
            -126 -60 37 129 0 0 65 40 198 hvcurveto
            130 -90 callgsubr
            143 4 rlineto
            -18 -146 -11 -114 -37 vvcurveto
            -161 120 -126 202 217 77 163 108 17 vhcurveto
            return
          </CharString>
          <CharString index="1">
            -105 9 -6 319 111 5 rlineto
            79 vlineto
            -334 12 -10 -105 3 callgsubr
            -15 -206 rlineto
            -61 -114 -88 -104 callsubr
            100 0 98 78 vhcurveto
            -6 -80 rlineto
            return
          </CharString>
          <CharString index="2">
            199 922 141 rmoveto
            -98 callsubr
            420 -13 rlineto
            -470 545 -45 callgsubr
            return
          </CharString>
          <CharString index="3">
            -92 callgsubr
            rlineto
            -17 -140 -6 -11 -80 vvcurveto
            -100 37 -66 123 vhcurveto
            0 return
          </CharString>
          <CharString index="4">
            123 795 354 rmoveto
            206 -78 167 -306 -70 callsubr
            -44 callsubr
            vhcurveto
            -89 hmoveto
            -84 callgsubr
            return
          </CharString>
          <CharString index="5">
            rmoveto
            41 12 41 29 48 vvcurveto
            41 -26 40 -45 -34 -28 -24 -28 -28 28 -23 34 7 7 1 2 6 vhcurveto
            -3 -7 -11 -13 -32 -5 return
          </CharString>
          <CharString index="6">
            -95 284 -30 rmoveto
            -43 callgsubr
            130 -64 118 -185 -67 callgsubr
            hvcurveto
            21 475 -82 callgsubr
            return
          </CharString>
          <CharString index="7">
            115 521 5 callgsubr
            -89 callgsubr
            709 27 -74 callgsubr
            return
          </CharString>
          <CharString index="8">
            rmoveto
            -134 hlineto
            -93 -162 76 -30 61 148 58 -148 132 34 rlineto
            endchar
          </CharString>
          <CharString index="9">
            -152 -6 -213 547 rlineto
            -416 -158 hlineto
            225 9 -235 -400 -127 -56 callsubr
            -160 1 36 78 rlineto
            323 hlineto
            42 -78 -169 -7 3 -124 return
          </CharString>
          <CharString index="10">
            -33 callsubr
            -37 -36 -30 -27 -32 -33 30 -27 36 37 30 27 33 vhcurveto
            endchar
          </CharString>
          <CharString index="11">
            rmoveto
            -94 callgsubr
          </CharString>
          <CharString index="12">
            3 -60 callgsubr
            17 -75 callgsubr
            return
          </CharString>
          <CharString index="13">
            rmoveto
            -9 -99 -47 -47 callsubr
            0 -46 0 -1 99 vhcurveto
            -69 -13 rlineto
            -3 -140 132 0 0 0 173 0 140 vvcurveto
            endchar
          </CharString>
          <CharString index="14">
            -88 callgsubr
            -177 -147 -81 -205 9 callsubr
            8 95 -111 167 hhcurveto
            return
          </CharString>
          <CharString index="15">
            -89 callsubr
            419 -34 -23 callsubr
            return
          </CharString>
          <CharString index="16">
            -51 callgsubr
            -57 -6 -19 -23 -229 vhcurveto
            261 9 callgsubr
            -104 -6 rlineto
            16 141 6 8 69 vvcurveto
            -79 callsubr
            return
          </CharString>
          <CharString index="17">
            156 492 141 rmoveto
            33 120 226 311 -80 callgsubr
            199 -272 32 -145 -42 callgsubr
            rlineto
            return
          </CharString>
          <CharString index="18">
            126 -90 callgsubr
            144 4 16 -418 -157 2 -3 -124 return
          </CharString>
          <CharString index="19">
            298 102 rmoveto
            -80 callsubr
            -24 callgsubr
            -8 callsubr
            return
          </CharString>
          <CharString index="20">
            134 728 754 rmoveto
            -52 callgsubr
            -189 113 -8 callgsubr
            271 0 63 62 vhcurveto
            -76 callgsubr
            rlineto
            return
          </CharString>
          <CharString index="21">
            -267 -88 callsubr
            return
          </CharString>
          <CharString index="22">
            49 264 89 -91 callsubr
            return
          </CharString>
          <CharString index="23">
            64 671 749 rmoveto
            -77 callsubr
            rlineto
            -31 99 89 -21 110 -68 callgsubr
            rlineto
            return
          </CharString>
          <CharString index="24">
            -42 -122 -97 -1 0 vvcurveto
            -117 -50 81 111 101 58 74 109 hvcurveto
            0 43 -1 48 -38 vhcurveto
            -14 -71 83 -10 82 219 -119 23 -17 -83 rlineto
            -71 47 -77 1 0 vvcurveto
            -133 -136 -79 -183 -14 hvcurveto
            return
          </CharString>
          <CharString index="25">
            66 581 111 4 7 112 -368 30 -24 callsubr
            104 3 rlineto
            -457 vlineto
            -301 594 -329 15 -17 -169 115 6 11 -417 -126 8 -24 callsubr
            384 32 5 100 rlineto
            return
          </CharString>
          <CharString index="26">
            673 315 rmoveto
            -25 -176 -363 9 37 420 -49 callsubr
            13 -414 -44 callgsubr
            return
          </CharString>
          <CharString index="27">
            37 374 -307 -20 rlineto
            -78 vlineto
            152 -5 1 -279 -148 -9 16 -89 return
          </CharString>
          <CharString index="28">
            108 -49 72 -129 vhcurveto
            0 -101 -6 -95 -73 vhcurveto
            7 93 -65 callgsubr
            rlineto
            return
          </CharString>
          <CharString index="29">
            302 844 -42 callsubr
            -90 -82 -21 -47 -59 hvcurveto
            -37 41 -63 31 -106 -2 -102 callgsubr
            118 103 42 29 55 hvcurveto
            -51 46 69 -32 90 3 callsubr
            117 -25 callsubr
            -413 -130 -91 callgsubr
            return
          </CharString>
          <CharString index="30">
            -21 -95 rlineto
            -90 58 -171 5 4 callgsubr
            4 -170 -66 -166 -73 callgsubr
            return
          </CharString>
          <CharString index="31">
            rmoveto
            -97 callsubr
          </CharString>
          <CharString index="32">
            rmoveto
            258 44 186 194 51 -2 119 -6 152 hvcurveto
            -280 -22 rlineto
            -80 vlineto
            118 7 rlineto
            1 -88 1 -66 -72 vvcurveto
            -197 -15 -107 -108 -42 -53 36 29 -34 vhcurveto
            -26 callgsubr
            return
          </CharString>
          <CharString index="33">
            rmoveto
            62 -35 51 -82 -78 -40 -51 -62 -62 38 -50 80 82 35 50 62 vhcurveto
            -38 hmoveto
            -18 -24 -15 -55 -54 -26 15 18 19 27 14 53 55 24 -14 -19 vhcurveto
            endchar
          </CharString>
          <CharString index="34">
            -220 -13 11 142 364 -56 callgsubr
            return
          </CharString>
          <CharString index="35">
            3 18 14 1 13 hhcurveto
            64 -7 -31 0 0 -6 -25 -52 -17 -19 2 6 -26 hvcurveto
            -29 -82 rlineto
            -9 34 31 -3 27 hhcurveto
            112 44 66 52 -16 hvcurveto
            endchar
          </CharString>
          <CharString index="36">
            2 -77 rlineto
            0 -91 59 -127 -136 -77 -68 -79 -116 169 -48 93 -26 vhcurveto
            39 -11 67 -18 -42 vvcurveto
            -33 -39 -6 -23 -74 -142 59 38 -61 -27 callgsubr
            return
          </CharString>
          <CharString index="37">
            -50 callsubr
            -205 109 -167 275 return
          </CharString>
          <CharString index="38">
            -4 123 -34 callgsubr
            -154 return
          </CharString>
          <CharString index="39">
            rlineto
            -61 43 -91 -47 callsubr
            -119 -160 -52 -206 -202 162 -49 83 hvcurveto
            0 103 0 77 60 vhcurveto
            -1 -60 248 -12 rlineto
            -384 449 rmoveto
            0 65 -1 77 -58 vhcurveto
            -4 -218 rlineto
            -67 -92 -68 -47 callsubr
            -88 -34 106 80 81 39 102 80 hvcurveto
            return
          </CharString>
          <CharString index="40">
            134 634 786 rmoveto
            -54 -82 rlineto
            15 -46 -56 8 -67 10 callgsubr
            -122 38 -109 90 -68 hvcurveto
            -44 -67 73 -48 54 70 rlineto
            -18 48 58 -10 67 hhcurveto
            -44 callsubr
            105 -20 94 -60 68 hvcurveto
            61 79 rlineto
            -365 -147 rmoveto
            24 23 -1 -2 21 hvcurveto
            -240 -367 rlineto
            -87 35 -36 64 72 vvcurveto
            110 95 89 200 vhcurveto
            295 -199 rmoveto
            -38 callgsubr
            -20 -19 1 1 -18 vhcurveto
            273 350 rlineto
            59 -36 20 -56 -62 vvcurveto
            return
          </CharString>
          <CharString index="41">
            238 103 rmoveto
            48 608 -30 callsubr
            1 -514 -41 callgsubr
            rlineto
            return
          </CharString>
          <CharString index="42">
            -83 475 549 rmoveto
            -44 -61 rlineto
            15 -34 -42 8 -49 -3 callgsubr
            -80 26 -79 57 -54 hvcurveto
            -56 -78 53 -38 62 73 rlineto
            -20 40 49 -12 59 hhcurveto
            156 110 84 172 69 -18 71 -43 54 hvcurveto
            53 63 rlineto
            -287 -38 rmoveto
            34 26 -16 -25 21 hvcurveto
            -172 -238 rlineto
            -13 41 -5 43 30 vvcurveto
            64 24 101 85 vhcurveto
            44 -408 rmoveto
            -40 -31 19 28 -23 hvcurveto
            180 213 rlineto
            11 -45 4 -44 -29 vvcurveto
            -61 -18 -81 -83 vhcurveto
            return
          </CharString>
          <CharString index="43">
            282 796 143 rmoveto
            -198 229 87 40 84 60 51 87 rlinecurve
            126 -10 8 155 -423 4 -3 -124 118 -10 -36 -60 -105 -143 -204 -14 rlinecurve
            10 210 166 6 -95 callsubr
            105 3 24 -414 -129 5 -33 callgsubr
            -190 7 7 147 48 5 82 13 88 30 rlinecurve
            108 -189 -94 4 -14 callgsubr
            return
          </CharString>
          <CharString index="44">
            rmoveto
            72 16 72 86 10 vhcurveto
            0 121 10 9 -123 vhcurveto
            return
          </CharString>
          <CharString index="45">
            591 997 5 callgsubr
            -250 -13 rlineto
            142 vlineto
            405 -56 callgsubr
            -924 5 -59 -158 228 9 -384 -400 -116 -56 callsubr
            -172 1 65 78 rlineto
            323 hlineto
            13 -78 -157 -7 3 -124 740 28 -53 callsubr
            -399 118 hlineto
            248 -18 rlineto
            -423 245 rmoveto
            42 -256 2 callgsubr
            hlineto
            return
          </CharString>
          <CharString index="46">
            -139 2 -85 3 -13 58 -12 50 57 42 152 2 rrcurveto
            0 131 3 146 -71 vhcurveto
            100 245 return
          </CharString>
          <CharString index="47">
            rmoveto
            84 -43 69 -116 -118 -41 -69 -84 -85 41 -68 118 125 34 68 85 vhcurveto
            -40 hmoveto
            -42 return
          </CharString>
          <CharString index="48">
            -15 callsubr
            436 -28 callsubr
            -14 -167 rlineto
            -386 hlineto
            17 173 -92 callsubr
            -172 1 13 144 389 23 -14 -182 -144 -14 callsubr
            return
          </CharString>
          <CharString index="49">
            hhcurveto
            125 93 37 104 98 -83 32 -106 25 hvcurveto
            -118 28 -57 14 37 vvcurveto
            29 35 16 51 73 97 -33 -34 64 vhcurveto
            48 166 return
          </CharString>
          <CharString index="50">
            -193 -66 -81 -141 -14 hvcurveto
            -143 6 rlineto
            -103 vlineto
            140 7 rlineto
            -8 vlineto
            9 -311 -109 -4 6 -79 -24 callgsubr
            105 -126 -5 rlineto
            279 vlineto
            14 0 14 1 13 vhcurveto
            return
          </CharString>
          <CharString index="51">
            1 -3 -123 419 -35 -23 callsubr
            return
          </CharString>
          <CharString index="52">
            rmoveto
            33 -40 26 -50 -50 -40 -26 -33 -32 40 -26 50 50 40 26 32 vhcurveto
            return
          </CharString>
          <CharString index="53">
            -64 callgsubr
            15 292 -3 callsubr
            7 -544 -15 callgsubr
            return
          </CharString>
          <CharString index="54">
            17 254 rlineto
            -76 hlineto
            -19 -95 rlineto
            return
          </CharString>
          <CharString index="55">
            -55 callsubr
            -285 -820 -75 callsubr
            endchar
          </CharString>
          <CharString index="56">
            vvcurveto
            -60 60 -36 62 30 37 7 19 45 vhcurveto
            return
          </CharString>
          <CharString index="57">
            -260 -124 -167 -206 return
          </CharString>
          <CharString index="58">
            140 5 -95 callsubr
            126 4 return
          </CharString>
          <CharString index="59">
            -78 callgsubr
            rrcurveto
            229 -64 -78 callgsubr
            rrcurveto
            endchar
          </CharString>
          <CharString index="60">
            0 0 vvcurveto
            return
          </CharString>
          <CharString index="61">
            -6 callgsubr
            211 108 71 -9 callgsubr
            -182 -152 24 395 -284 -8 rlineto
            -85 vlineto
            105 -5 -9 -525 -9 callsubr
            7 122 22 14 -2 callgsubr
            return
          </CharString>
          <CharString index="62">
            143 816 357 rmoveto
            255 -179 98 -246 -73 -145 -6 -45 -147 vhcurveto
            30 -156 44 11 42 9 40 8 rlinecurve
            return
          </CharString>
          <CharString index="63">
            271 113 167 205 return
          </CharString>
          <CharString index="64">
            rmoveto
            -59 -17 -58 -41 -69 vvcurveto
            -58 36 -57 65 49 39 34 40 40 -39 33 -49 -10 -10 -2 -2 -9 vhcurveto
            5 9 16 19 45 7 return
          </CharString>
          <CharString index="65">
            202 rmoveto
            -88 callgsubr
            return
          </CharString>
          <CharString index="66">
            30 400 140 rmoveto
            32 398 -39 callsubr
            31 -394 -163 7 -14 callgsubr
            return
          </CharString>
          <CharString index="67">
            -50 154 rlineto
            -122 -75 -166 -47 callsubr
            return
          </CharString>
          <CharString index="68">
            194 1 3 -146 92 13 -37 304 -642 -26 -25 -291 rlineto
            84 hlineto
            3 143 174 1 return
          </CharString>
          <CharString index="69">
            -19 72 -16 59 0 vvcurveto
            -67 -48 -66 -34 -55 hhcurveto
            -55 -43 34 70 hvcurveto
            return
          </CharString>
          <CharString index="70">
            rmoveto
            13 -167 398 20 14 -8 callsubr
            return
          </CharString>
          <CharString index="71">
            9 -166 71 -211 hhcurveto
            0 -212 0 -191 -57 vhcurveto
            20 return
          </CharString>
          <CharString index="72">
            -49 -39 -34 -40 -40 39 -33 49 return
          </CharString>
          <CharString index="73">
            rmoveto
            247 102 -39 183 -282 -216 rlineto
            -137 vlineto
            306 -187 31 69 rlineto
            return
          </CharString>
          <CharString index="74">
            32 -30 27 return
          </CharString>
          <CharString index="75">
            124 rmoveto
            -72 hlineto
            6 53 75 5 rlineto
            36 vlineto
            -72 -4 14 139 -101 13 -148 -167 7 -35 176 10 2 -50 rlineto
            -102 hlineto
            -7 -72 222 7 rlineto
            return
          </CharString>
          <CharString index="76">
            406 rmoveto
            9 194 -120 -14 5 -174 -159 8 13 -177 150 7 5 -175 rlineto
            82 hlineto
            8 180 153 8 14 135 rlineto
            return
          </CharString>
          <CharString index="77">
            -307 -10 rlineto
            -88 vlineto
            141 -5 return
          </CharString>
          <CharString index="78">
            275 276 123 rmoveto
            38 420 return
          </CharString>
          <CharString index="79">
            vlineto
            150 13 -4 124 8 callgsubr
            175 14 return
          </CharString>
          <CharString index="80">
            -40 38 -33 49 49 38 33 40 vhcurveto
            return
          </CharString>
          <CharString index="81">
            rmoveto
            -33 callsubr
            return
          </CharString>
          <CharString index="82">
            rmoveto
            72 16 71 86 10 vhcurveto
            0 133 16 9 -123 vhcurveto
            return
          </CharString>
          <CharString index="83">
            rlineto
            -155 vlineto
            return
          </CharString>
          <CharString index="84">
            7 154 return
          </CharString>
          <CharString index="85">
            hhcurveto
            132 162 30 175 return
          </CharString>
          <CharString index="86">
            41 -38 33 -49 -49 -38 -33 -41 return
          </CharString>
          <CharString index="87">
            rmoveto
            -2 2 -47 0 0 317 -10 0 hvcurveto
            0 0 69 0 vhcurveto
            0 -315 -12 -2 vhcurveto
            endchar
          </CharString>
          <CharString index="88">
            80 14 11 -140 -91 -9 6 -71 rlineto
            223 hlineto
            return
          </CharString>
          <CharString index="89">
            -20 2 -22 5 -26 hvcurveto
            64 hlineto
            -5 15 -2 13 10 vvcurveto
            47 43 1 0 vhcurveto
            62 1 71 return
          </CharString>
          <CharString index="90">
            rmoveto
            0 -21 63 -92 -4 vhcurveto
            return
          </CharString>
          <CharString index="91">
            rmoveto
            3 -13 1 -12 -10 vvcurveto
            -67 -50 -11 0 vhcurveto
            -13 -59 -53 129 -130 hhcurveto
            return
          </CharString>
          <CharString index="92">
            293 958 141 rmoveto
            -150 -6 rlineto
            return
          </CharString>
          <CharString index="93">
            -6 -7 callgsubr
            return
          </CharString>
          <CharString index="94">
            -213 452 432 rmoveto
            -381 233 -40 -86 329 -233 -309 return
          </CharString>
          <CharString index="95">
            4 0 vvcurveto
            return
          </CharString>
          <CharString index="96">
            -37 83 -47 callsubr
            119 146 51 207 202 -148 49 -83 return
          </CharString>
          <CharString index="97">
            hhcurveto
            120 136 59 2 callsubr
            hvcurveto
            return
          </CharString>
          <CharString index="98">
            -90 -3 rlineto
            -85 327 95 vlineto
            -86 -3 return
          </CharString>
          <CharString index="99">
            125 rlineto
            return
          </CharString>
          <CharString index="100">
            -146 1 3 -141 414 26 rlineto
            112 vlineto
            -165 1 return
          </CharString>
          <CharString index="101">
            -190 6 return
          </CharString>
          <CharString index="102">
            3 124 return
          </CharString>
          <CharString index="103">
            -47 callsubr
            87 34 -105 -81 -80 -39 -102 -80 hvcurveto
            endchar
          </CharString>
          <CharString index="104">
            -274 -16 rlineto
            -79 vlineto
            104 4 return
          </CharString>
          <CharString index="105">
            -47 callsubr
            -188 return
          </CharString>
          <CharString index="106">
            rrcurveto
            0 104 16 151 vvcurveto
            18 -2 20 -3 21 vhcurveto
            return
          </CharString>
          <CharString index="107">
            5 -224 -129 -8 13 -137 rlineto
            119 hlineto
            return
          </CharString>
          <CharString index="108">
            -14 callgsubr
            endchar
          </CharString>
          <CharString index="109">
            129 49 return
          </CharString>
          <CharString index="110">
            -10 callsubr
            -417 return
          </CharString>
          <CharString index="111">
            16 125 return
          </CharString>
          <CharString index="112">
            -330 rlineto
            90 hlineto
            61 324 rlineto
            endchar
          </CharString>
          <CharString index="113">
            -268 -28 rlineto
            -67 vlineto
            126 -10 -35 return
          </CharString>
          <CharString index="114">
            -47 -59 vvcurveto
            -57 -6 -19 -23 -229 vhcurveto
            return
          </CharString>
          <CharString index="115">
            124 -34 callgsubr
            return
          </CharString>
          <CharString index="116">
            hvcurveto
            -134 return
          </CharString>
          <CharString index="117">
            -248 -3 7 -95 132 17 return
          </CharString>
          <CharString index="118">
            150 39 -75 -93 vhcurveto
            endchar
          </CharString>
        <CharString name=".notdef">
          -401 endchar
        </CharString>
        <CharString name="A">
          -105 callsubr
          endchar
        </CharString>
        <CharString name="AE">
          -62 callsubr
          endchar
        </CharString>
        <CharString name="AEacute">
          -62 callsubr
          377 643 -96 callsubr
        </CharString>
        <CharString name="Aacute">
          -105 callsubr
          248 653 -96 callsubr
        </CharString>
        <CharString name="Abreve">
          -105 callsubr
          138 598 -94 callsubr
        </CharString>
        <CharString name="Acircumflex">
          -105 callsubr
          191 640 -99 callsubr
        </CharString>
        <CharString name="Adieresis">
          -105 callsubr
          293 515 -103 callgsubr
        </CharString>
        <CharString name="Agrave">
          -105 callsubr
          -30 650 -71 callgsubr
        </CharString>
        <CharString name="Amacron">
          -105 callsubr
          287 570 -59 callgsubr
        </CharString>
        <CharString name="Aogonek">
          199 812 -87 -54 callgsubr
          -7 31 58 49 hvcurveto
          186 -6 rlineto
          154 vlineto
          -98 callsubr
          165 -5 rlineto
          -48 -42 -11 -41 -29 -51 callsubr
          -390 719 -45 callgsubr
          endchar
        </CharString>
        <CharString name="Aring">
          -105 callsubr
          245 562 -74 callsubr
        </CharString>
        <CharString name="Atilde">
          -105 callsubr
          201 580 -97 callgsubr
        </CharString>
        <CharString name="B">
          135 813 188 rmoveto
          0 0 125 -123 52 vhcurveto
          69 40 36 53 4 58 rrcurveto
          135 -36 callsubr
          -149 103 21 24 -379 -32 8 -32 9 -32 12 rlinecurve
          -51 -174 rlineto
          -34 140 167 -1 153 hhcurveto
          214 111 87 123 hvcurveto
          -453 109 rmoveto
          38 35 1 4 33 hvcurveto
          111 -1 93 -9 12 -64 rrcurveto
          -70 14 -74 -41 -143 hhcurveto
          0 -89 -1 -116 20 vhcurveto
          8 163 rlineto
          -2 27 26 0 25 hhcurveto
          -34 66 rmoveto
          -14 -14 0 1 -13 hvcurveto
          10 204 rlineto
          10 56 45 6 56 hhcurveto
          111 50 -45 -36 6 9 callsubr
          24 -224 -6 -93 hhcurveto
          endchar
        </CharString>
        <CharString name="C">
          -87 callsubr
          endchar
        </CharString>
        <CharString name="Cacute">
          -87 callsubr
          -308 229 -96 callsubr
        </CharString>
        <CharString name="Ccaron">
          134 852 729 rmoveto
          -131 -349 -65 16 14 72 rlineto
          -105 66 -122 -47 callsubr
          -151 -180 -41 -153 -128 106 -84 188 hvcurveto
          0 166 0 122 75 vhcurveto
          50 -154 rlineto
          -63 -62 -271 -47 callsubr
          -271 -113 164 189 259 243 118 190 -6 hvcurveto
          0 123 -4 126 -50 vhcurveto
          20 97 rlineto
          -147 158 -87 callgsubr
        </CharString>
        <CharString name="Ccedilla">
          135 547 -114 -17 callsubr
          15 43 77 2 170 11 48 48 rlinecurve
          -76 callgsubr
          -124 25 -52 callgsubr
          -186 109 -161 262 -5 vhcurveto
          -35 -82 rlineto
          -72 callsubr
        </CharString>
        <CharString name="Ccircumflex">
          -87 callsubr
          -371 217 -99 callsubr
        </CharString>
        <CharString name="Cdotaccent">
          -87 callsubr
          -368 89 -76 callsubr
        </CharString>
        <CharString name="D">
          -45 callsubr
          31 -378 -40 callgsubr
          -395 -216 rmoveto
          0 -49 -1 -67 5 vhcurveto
          18 406 -32 callgsubr
          endchar
        </CharString>
        <CharString name="Dcaron">
          143 816 357 rmoveto
          -289 -238 -85 -230 -78 -111 4 13 -133 vhcurveto
          37 179 47 -12 53 -9 50 -5 rlinecurve
          -31 378 -40 -8 -42 -9 -44 -11 rlinecurve
          -30 156 rlineto
          45 147 145 6 73 hhcurveto
          246 179 -98 -255 hvcurveto
          -395 -216 rmoveto
          210 107 112 96 96 -59 107 -184 8 hvcurveto
          0 -66 3 -106 -12 vhcurveto
          -18 -406 rlineto
          67 -5 49 1 0 vvcurveto
          164 771 -87 callgsubr
        </CharString>
        <CharString name="Dcroat">
          -66 callgsubr
        </CharString>
        <CharString name="E">
          -100 callsubr
          endchar
        </CharString>
        <CharString name="Eacute">
          -100 callsubr
          652 vmoveto
          -94 callgsubr
        </CharString>
        <CharString name="Ebreve">
          -100 callsubr
          -91 594 -94 callsubr
        </CharString>
        <CharString name="Ecaron">
          115 521 287 rmoveto
          -226 18 -9 -118 rlineto
          386 hlineto
          19 95 rlineto
          76 hlineto
          -17 -254 -709 -27 rlineto
          186 145 vlineto
          -21 329 -124 -8 rlineto
          184 vlineto
          726 -15 rlineto
          -282 vlineto
          -76 -15 -15 169 -364 -24 -11 -142 220 13 rlineto
          50 481 -87 callgsubr
        </CharString>
        <CharString name="Ecircumflex">
          -100 callsubr
          -54 627 -99 callsubr
        </CharString>
        <CharString name="Edieresis">
          -100 callsubr
          49 498 -103 callgsubr
        </CharString>
        <CharString name="Edotaccent">
          -100 callsubr
          -47 500 -76 callsubr
        </CharString>
        <CharString name="Egrave">
          -100 callsubr
          -188 641 -71 callgsubr
        </CharString>
        <CharString name="Emacron">
          -100 callsubr
          58 547 -59 callgsubr
        </CharString>
        <CharString name="Eng">
          -29 callsubr
          372 -578 rlineto
          -92 -22 -89 -29 -110 hhcurveto
          -99 -89 14 83 -27 hvcurveto
          -84 -8 rlineto
          -137 21 95 -112 170 hhcurveto
          221 91 124 173 20 hvcurveto
          -82 callsubr
          endchar
        </CharString>
        <CharString name="Eogonek">
          115 694 -44 -54 callgsubr
          -6 26 42 40 hvcurveto
          147 6 -74 callgsubr
          109 vlineto
          -89 callgsubr
          489 18 rlineto
          -32 -35 -8 -33 -25 -51 callsubr
          endchar
        </CharString>
        <CharString name="Eth">
          -66 callgsubr
        </CharString>
        <CharString name="Euro">
          374 384 473 rmoveto
          46 66 102 15 91 hhcurveto
          -46 callgsubr
          -124 25 -36 callgsubr
          -152 5 -185 -75 -69 -162 -142 7 rcurveline
          -29 -125 145 6 rlineto
          -1 -9 0 -9 -9 vvcurveto
          -10 vlineto
          -157 -6 -43 -89 215 -10 rlineto
          -136 39 116 -102 214 hhcurveto
          0 271 0 63 62 vhcurveto
          -40 callsubr
          -120 -87 34 58 -47 hvcurveto
          92 -4 28 125 -160 -7 rlineto
          6 vlineto
          10 1 11 1 9 vhcurveto
          171 8 44 89 rlineto
          endchar
        </CharString>
        <CharString name="F">
          85 522 366 rmoveto
          -222 -14 13 173 364 24 -5 -159 96 5 rlineto
          282 vlineto
          -726 15 rlineto
          -184 vlineto
          124 8 24 -386 -150 -14 callsubr
          154 vlineto
          -180 -8 11 142 228 -18 rlineto
          endchar
        </CharString>
        <CharString name="G">
          -95 callgsubr
          endchar
        </CharString>
        <CharString name="Gbreve">
          -95 callgsubr
          -360 189 -94 callsubr
        </CharString>
        <CharString name="Gcircumflex">
          -95 callgsubr
          -319 230 -99 callsubr
        </CharString>
        <CharString name="Gcommaaccent">
          -95 callgsubr
          -398 -919 -99 callgsubr
        </CharString>
        <CharString name="Gdotaccent">
          -95 callgsubr
          -316 97 -76 callsubr
        </CharString>
        <CharString name="H">
          -59 callsubr
          endchar
        </CharString>
        <CharString name="Hbar">
          -15 callsubr
          309 vlineto
          112 5 rlineto
          71 vlineto
          -112 -1 rlineto
          52 -28 callsubr
          -4 -44 -384 -1 5 51 126 -90 callgsubr
          144 4 2 -46 rlineto
          -86 hlineto
          5 -102 84 3 11 -273 -157 2 -3 -124 419 -34 -23 callsubr
          -172 1 13 144 389 23 -14 -182 -144 -14 callsubr
          -644 409 rmoveto
          3 28 386 16 -3 -44 rlineto
          endchar
        </CharString>
        <CharString name="Hcircumflex">
          -59 callsubr
          -398 948 -99 callsubr
        </CharString>
        <CharString name="I">
          -205 -93 callgsubr
          endchar
        </CharString>
        <CharString name="IJ">
          567 -93 callgsubr
          806 564 -72 callgsubr
          endchar
        </CharString>
        <CharString name="Iacute">
          -205 -93 callgsubr
          -88 804 -96 callsubr
        </CharString>
        <CharString name="Ibreve">
          -205 -93 callgsubr
          -193 754 -94 callsubr
        </CharString>
        <CharString name="Icircumflex">
          -205 -93 callgsubr
          -150 791 -99 callsubr
        </CharString>
        <CharString name="Idieresis">
          -205 -93 callgsubr
          -47 666 -103 callgsubr
        </CharString>
        <CharString name="Idotaccent">
          -205 -93 callgsubr
          -142 661 -76 callsubr
        </CharString>
        <CharString name="Igrave">
          -205 -93 callgsubr
          -324 816 -71 callgsubr
        </CharString>
        <CharString name="Imacron">
          -205 -93 callgsubr
          -44 721 -59 callgsubr
        </CharString>
        <CharString name="Iogonek">
          -205 341 -70 -54 callgsubr
          -7 30 53 46 hvcurveto
          196 -16 -23 callsubr
          -172 1 40 424 -89 callsubr
          158 -13 rlineto
          -47 -42 -11 -40 -29 -51 callsubr
          endchar
        </CharString>
        <CharString name="Itilde">
          -205 -93 callgsubr
          -142 748 -97 callgsubr
        </CharString>
        <CharString name="J">
          79 781 708 -72 callgsubr
          endchar
        </CharString>
        <CharString name="Jcircumflex">
          79 781 708 -72 callgsubr
          -149 351 -99 callsubr
        </CharString>
        <CharString name="K">
          -64 callsubr
          endchar
        </CharString>
        <CharString name="Kcommaaccent">
          -64 callsubr
          -476 -345 -99 callgsubr
        </CharString>
        <CharString name="L">
          73 -81 callsubr
          endchar
        </CharString>
        <CharString name="Lacute">
          73 -81 callsubr
          -382 638 -96 callsubr
        </CharString>
        <CharString name="Lcaron">
          73 -81 callsubr
          -205 252 -99 callgsubr
        </CharString>
        <CharString name="Lcommaaccent">
          73 -81 callsubr
          -404 -523 -99 callgsubr
        </CharString>
        <CharString name="Ldot">
          343 -81 callsubr
          231 42 -30 callgsubr
        </CharString>
        <CharString name="Lslash">
          87 323 428 rmoveto
          13 140 -49 callsubr
          6 -169 -131 -32 34 -124 100 36 4 -125 -44 callgsubr
          -102 hlineto
          -25 -176 -363 9 15 170 150 54 -1 90 rlineto
          endchar
        </CharString>
        <CharString name="M">
          437 417 113 rmoveto
          -138 9 28 385 244 -449 rlineto
          74 hlineto
          182 443 55 -369 -143 4 -24 callsubr
          397 32 -8 113 -150 4 -12 423 rlineto
          142 155 -309 hlineto
          -164 -481 -246 481 rlineto
          -310 hlineto
          -17 -202 138 15 10 -394 -135 9 -13 -155 384 32 rlineto
          endchar
        </CharString>
        <CharString name="N">
          -81 callgsubr
          endchar
        </CharString>
        <CharString name="Nacute">
          -81 callgsubr
          163 825 -96 callsubr
        </CharString>
        <CharString name="Ncaron">
          275 446 113 rmoveto
          -5 -100 -384 -32 rlineto
          155 vlineto
          126 -8 -11 417 -115 -6 17 169 329 -15 301 -594 rlineto
          457 vlineto
          -104 -3 rlineto
          155 vlineto
          368 -30 -7 -112 -111 -4 -66 -581 -96 -19 -374 581 -38 -420 rlineto
          375 790 -87 callgsubr
        </CharString>
        <CharString name="Ncommaaccent">
          -81 callgsubr
          26 -321 -99 callgsubr
        </CharString>
        <CharString name="Ntilde">
          -81 callgsubr
          140 782 -97 callgsubr
        </CharString>
        <CharString name="O">
          -103 callsubr
          endchar
        </CharString>
        <CharString name="OE">
          652 1058 5 callgsubr
          -73 callsubr
          -614 15 3 -49 rlineto
          52 -59 -90 32 -133 hhcurveto
          -70 callsubr
          152 103 53 82 60 hvcurveto
          8 -116 553 27 -74 callgsubr
          -352 67 rmoveto
          -23 callgsubr
        </CharString>
        <CharString name="Oacute">
          -103 callsubr
          -168 625 -96 callsubr
        </CharString>
        <CharString name="Obreve">
          -103 callsubr
          -272 555 -94 callsubr
        </CharString>
        <CharString name="Ocircumflex">
          -103 callsubr
          -232 607 -99 callsubr
        </CharString>
        <CharString name="Odieresis">
          -103 callsubr
          -129 471 -103 callgsubr
        </CharString>
        <CharString name="Ograve">
          -103 callsubr
          -415 616 -71 callgsubr
        </CharString>
        <CharString name="Ohungarumlaut">
          -103 callsubr
          -320 615 -61 callgsubr
        </CharString>
        <CharString name="Omacron">
          -103 callsubr
          -123 516 -59 callgsubr
        </CharString>
        <CharString name="Oslash">
          -67 callsubr
          endchar
        </CharString>
        <CharString name="Oslashacute">
          -67 callsubr
          -183 615 -96 callsubr
        </CharString>
        <CharString name="Otilde">
          -103 callsubr
          -222 552 -97 callgsubr
        </CharString>
        <CharString name="P">
          109 195 121 rmoveto
          -7 callsubr
          -1 134 rlineto
          182 19 328 1 callgsubr
          -228 3 -279 -86 vhcurveto
          27 -138 31 13 42 14 47 13 rlinecurve
          332 63 7 callgsubr
          -208 -75 -140 -29 -2 264 rcurveline
          17 79 74 12 44 hhcurveto
          endchar
        </CharString>
        <CharString name="Q">
          124 683 -108 rmoveto
          -63 -25 -59 1 0 vvcurveto
          0 -96 1 -18 114 vhcurveto
          246 14 103 161 196 vvcurveto
          206 -78 167 -306 -50 callsubr
          -195 98 -160 245 -16 vhcurveto
          -3 vlineto
          -97 28 -155 174 38 44 8 16 52 vhcurveto
          602 vmoveto
          -23 callgsubr
        </CharString>
        <CharString name="R">
          -86 callgsubr
          endchar
        </CharString>
        <CharString name="Racute">
          -86 callgsubr
          195 618 -96 callsubr
        </CharString>
        <CharString name="Rcaron">
          175 862 253 rmoveto
          -37 -240 rlineto
          -212 hlineto
          -174 280 rlineto
          -2 -25 -28 -1 -28 hhcurveto
          -22 -23 0 1 -24 hvcurveto
          -8 -169 155 -9 9 -100 -398 -32 rlineto
          155 vlineto
          139 -8 -27 415 -103 -21 -20 148 rlineto
          191 57 212 -47 callsubr
          211 166 -71 -134 -9 hvcurveto
          -6 -94 -91 -90 -183 -34 178 -171 rcurveline
          79 20 1 100 rlineto
          -451 102 rmoveto
          100 218 9 144 -25 hvcurveto
          36 -6 -50 45 -112 hhcurveto
          -55 -45 -5 -10 -56 hvcurveto
          -11 -218 rlineto
          -1 14 14 0 14 hhcurveto
          267 574 -87 callgsubr
        </CharString>
        <CharString name="Rcommaaccent">
          -86 callgsubr
          88 -563 -99 callgsubr
        </CharString>
        <CharString name="S">
          -84 callsubr
          endchar
        </CharString>
        <CharString name="Sacute">
          -84 callsubr
          -249 248 -96 callsubr
        </CharString>
        <CharString name="Scaron">
          64 751 717 rmoveto
          -100 -245 rlineto
          -146 71 -131 -3 0 vvcurveto
          -152 -2 -57 -42 12 -50 13 -58 85 -3 139 -2 rrcurveto
          110 -2 198 -4 -193 vvcurveto
          -175 -162 -30 -132 -110 -89 21 31 -99 vhcurveto
          -29 -86 -69 20 63 241 rlineto
          -51 118 111 -30 124 hhcurveto
          122 47 29 57 71 -73 7 -147 4 hvcurveto
          -155 4 -214 6 186 vvcurveto
          166 170 66 191 -4 vhcurveto
          0 171 -5 90 -58 vhcurveto
          21 95 rlineto
          -118 178 -87 callgsubr
        </CharString>
        <CharString name="Scedilla">
          64 490 -132 -17 callsubr
          18 53 rlineto
          -1 11 11 0 11 -68 callgsubr
          -80 32 -77 callsubr
          73 -23 68 -17 75 -8 rlinecurve
          -41 -95 rlineto
          -72 callsubr
        </CharString>
        <CharString name="Scircumflex">
          -84 callsubr
          -305 231 -99 callsubr
        </CharString>
        <CharString name="T">
          -41 callsubr
          endchar
        </CharString>
        <CharString name="Tbar">
          30 400 140 rmoveto
          10 132 rlineto
          155 hlineto
          -5 121 -141 -9 13 154 -39 callsubr
          12 -162 -132 -8 7 -95 rlineto
          133 hlineto
          11 -129 -163 7 1 callsubr
        </CharString>
        <CharString name="Tcaron">
          30 569 133 rmoveto
          -3 -124 -420 -13 rlineto
          154 vlineto
          163 -7 -31 394 -174 -1 -3 -143 rlineto
          -84 hlineto
          25 291 642 26 37 -304 -92 -13 -3 146 -194 -1 -32 -398 rlineto
          129 763 -87 callgsubr
        </CharString>
        <CharString name="Tcommaaccent">
          -41 callsubr
          -219 -341 -99 callgsubr
        </CharString>
        <CharString name="Thorn">
          116 297 772 rmoveto
          -139 -20 8 -150 -48 -11 -50 -13 -53 -16 rlinecurve
          27 -138 34 14 47 16 51 14 rlinecurve
          20 -347 -7 callsubr
          rlineto
          34 vlineto
          182 19 327 1 callgsubr
          -90 1 -135 -20 vhcurveto
          197 -99 7 callgsubr
          -207 -74 -141 -30 -1 264 rcurveline
          17 78 74 12 44 hhcurveto
          endchar
        </CharString>
        <CharString name="U">
          -107 callsubr
          endchar
        </CharString>
        <CharString name="Uacute">
          -107 callsubr
          -181 704 -96 callsubr
        </CharString>
        <CharString name="Ubreve">
          -107 callsubr
          -267 648 -94 callsubr
        </CharString>
        <CharString name="Ucircumflex">
          -107 callsubr
          -223 686 -99 callsubr
        </CharString>
        <CharString name="Udieresis">
          -107 callsubr
          -121 558 -103 callgsubr
        </CharString>
        <CharString name="Ugrave">
          -107 callsubr
          -397 708 -71 callgsubr
        </CharString>
        <CharString name="Uhungarumlaut">
          -107 callsubr
          -320 699 -61 callgsubr
        </CharString>
        <CharString name="Umacron">
          -107 callsubr
          -128 620 -59 callgsubr
        </CharString>
        <CharString name="Uogonek">
          568 -94 -54 callgsubr
          -6 28 47 43 hvcurveto
          195 14 71 153 16 103 rrcurveto
          0 8 48 112 vvcurveto
          43 -1 53 -4 63 vhcurveto
          171 14 -69 callsubr
          154 13 rlineto
          17 -153 0 -89 0 vvcurveto
          -157 13 -124 -23 -126 hhcurveto
          -126 -60 37 129 0 0 65 40 198 hvcurveto
          130 -90 callgsubr
          143 4 rlineto
          -18 -146 -11 -114 -37 vvcurveto
          -150 104 -119 177 -16 vhcurveto
          -39 -38 -9 -37 -27 -51 callsubr
          endchar
        </CharString>
        <CharString name="Uring">
          -107 callsubr
          -182 613 -74 callsubr
        </CharString>
        <CharString name="Utilde">
          -107 callsubr
          -226 647 -97 callgsubr
        </CharString>
        <CharString name="V">
          188 550 137 rmoveto
          198 429 166 14 -69 callsubr
          147 12 -229 -381 -121 389 121 -90 callgsubr
          140 4 199 -414 -102 4 1 callsubr
        </CharString>
        <CharString name="W">
          -96 callgsubr
          endchar
        </CharString>
        <CharString name="Wacute">
          -96 callgsubr
          -256 788 -96 callsubr
        </CharString>
        <CharString name="Wcircumflex">
          -96 callgsubr
          -277 799 -99 callsubr
        </CharString>
        <CharString name="Wdieresis">
          -96 callgsubr
          -182 675 -103 callgsubr
        </CharString>
        <CharString name="Wgrave">
          -96 callgsubr
          -475 789 -71 callgsubr
        </CharString>
        <CharString name="X">
          246 912 151 rmoveto
          -104 -1 -251 213 198 206 161 14 -69 callsubr
          107 9 -147 -144 -111 155 109 -90 callgsubr
          127 4 220 -222 -194 -189 -153 6 -33 callgsubr
          -110 4 137 143 121 -140 -117 -1 8 -154 419 35 rlineto
          endchar
        </CharString>
        <CharString name="Y">
          -90 callsubr
          endchar
        </CharString>
        <CharString name="Yacute">
          -90 callsubr
          -61 822 -96 callsubr
        </CharString>
        <CharString name="Ycircumflex">
          -90 callsubr
          -103 798 -99 callsubr
        </CharString>
        <CharString name="Ydieresis">
          -90 callsubr
          -13 674 -103 callgsubr
        </CharString>
        <CharString name="Ygrave">
          -90 callsubr
          -301 817 -71 callgsubr
        </CharString>
        <CharString name="Z">
          -58 callgsubr
          endchar
        </CharString>
        <CharString name="Zacute">
          -58 callgsubr
          -223 409 -96 callsubr
        </CharString>
        <CharString name="Zcaron">
          38 696 559 rmoveto
          -457 -398 364 7 rlineto
          113 103 vlineto
          -20 -277 rlineto
          -627 hlineto
          -23 154 539 398 -436 -8 rlineto
          -112 -103 vlineto
          20 277 rlineto
          616 hlineto
          -138 211 -87 callgsubr
        </CharString>
        <CharString name="Zdotaccent">
          -58 callgsubr
          -260 253 -76 callsubr
        </CharString>
        <CharString name="a">
          -107 callgsubr
          endchar
        </CharString>
        <CharString name="aacute">
          -107 callgsubr
          55 553 -96 callsubr
        </CharString>
        <CharString name="abreve">
          -107 callgsubr
          -68 495 -94 callsubr
        </CharString>
        <CharString name="acircumflex">
          -107 callgsubr
          -14 530 -99 callsubr
        </CharString>
        <CharString name="acute">
          -428 143 802 -96 callsubr
        </CharString>
        <CharString name="adieresis">
          -107 callgsubr
          88 404 -103 callgsubr
        </CharString>
        <CharString name="ae">
          -78 callsubr
          endchar
        </CharString>
        <CharString name="aeacute">
          -78 callsubr
          218 528 -96 callsubr
        </CharString>
        <CharString name="agrave">
          -107 callgsubr
          -230 556 -71 callgsubr
        </CharString>
        <CharString name="amacron">
          -107 callgsubr
          81 459 -59 callgsubr
        </CharString>
        <CharString name="ampersand">
          120 280 715 rmoveto
          -57 -126 -36 -146 -61 39 -69 59 -69 hvcurveto
          -84 -42 -81 -37 -92 vvcurveto
          -146 124 -47 153 83 74 30 44 62 vhcurveto
          88 -62 66 -41 0 vvcurveto
          109 133 rlineto
          0 -64 30 -86 45 vhcurveto
          113 134 57 160 0 vvcurveto
          0 -188 10 -2 vhcurveto
          -7 -55 -45 -94 -66 -79 -60 35 -61 38 -53 37 rrcurveto
          67 34 101 56 111 vvcurveto
          142 -119 37 -96 vhcurveto
          133 -217 rmoveto
          -37 -67 -41 -74 -44 vhcurveto
          -60 49 -41 46 37 vvcurveto
          52 66 18 40 55 81 -17 -63 vhcurveto
          -272 -322 rmoveto
          51 51 34 45 26 vhcurveto
          50 -53 59 -51 58 -47 rrcurveto
          -27 -41 -44 -17 -47 hhcurveto
          -66 -65 22 62 hvcurveto
          endchar
        </CharString>
        <CharString name="aogonek">
          -72 575 -113 -54 callgsubr
          -8 34 67 53 hvcurveto
          103 -8 25 90 -117 15 rlineto
          -105 callgsubr
          75 -5 rlineto
          -59 -46 -12 -45 -31 -51 callsubr
          -200 413 -91 callgsubr
          endchar
        </CharString>
        <CharString name="approxequal">
          -96 466 572 -16 callsubr
          -24 -95 7 -147 -18 callsubr
          -128 129 20 -1 callsubr
          -61 -231 -16 callsubr
          -79 -40 -51 -89 -18 callsubr
          -129 129 21 -1 callsubr
          endchar
        </CharString>
        <CharString name="aring">
          -107 callgsubr
          40 464 -74 callsubr
        </CharString>
        <CharString name="asciicircum">
          -211 349 759 rmoveto
          -178 hlineto
          -141 -361 86 -21 96 259 72 -278 174 19 rlineto
          endchar
        </CharString>
        <CharString name="asciitilde">
          -146 451 475 rmoveto
          3 -14 1 -14 -11 vvcurveto
          -75 -50 -12 0 vhcurveto
          -14 -59 -53 143 -130 hhcurveto
          -19 -100 7 -163 -22 2 -25 5 -29 hvcurveto
          64 hlineto
          -5 17 -2 14 11 vvcurveto
          52 43 2 0 vhcurveto
          62 1 71 -144 129 23 rrcurveto
          0 104 17 170 vvcurveto
          20 -2 22 -3 24 vhcurveto
          endchar
        </CharString>
        <CharString name="asterisk">
          -138 361 463 rmoveto
          148 -27 20 214 -214 -58 16 191 rlineto
          -134 hlineto
          34 -188 -191 41 3 -216 161 47 -113 -201 106 -55 75 243 93 -218 109 74 rlineto
          endchar
        </CharString>
        <CharString name="at">
          66 739 271 rmoveto
          208 -130 71 -212 -212 -154 -88 -253 -223 166 -92 235 30 33 2 3 33 vhcurveto
          -4 116 rlineto
          -73 -10 -56 3 0 vvcurveto
          -56 -3 -236 -7 214 vvcurveto
          184 180 25 112 111 168 -44 -106 0 0 -138 -109 11 vhcurveto
          9 187 -113 2 rlineto
          -12 0 -11 1 -11 vhcurveto
          -50 17 -55 -47 callsubr
          -89 -87 -42 -71 -66 41 -47 123 hvcurveto
          0 69 0 59 38 vhcurveto
          2 -13 1 -4 0 vvcurveto
          -33 7 48 4 56 hhcurveto
          58 94 14 175 hvcurveto
          -272 -84 rmoveto
          -43 -22 -39 -47 callsubr
          -41 -36 5 36 25 33 19 56 hvcurveto
          0 35 0 32 -6 vhcurveto
          endchar
        </CharString>
        <CharString name="atilde">
          -107 callgsubr
          -4 495 -97 callgsubr
        </CharString>
        <CharString name="b">
          -64 612 263 rmoveto
          181 -110 80 -141 -50 -49 -15 -26 -44 vhcurveto
          19 126 23 105 0 vvcurveto
          -280 26 -7 -99 104 5 rlineto
          0 -28 -245 -152 vvcurveto
          -187 4 124 -86 129 hhcurveto
          128 178 77 210 hvcurveto
          -420 -54 rmoveto
          52 5 61 7 60 vhcurveto
          35 44 51 22 33 -1 46 -2 68 -31 -2 -151 rrcurveto
          -150 -2 -42 -69 -80 hhcurveto
          -63 -56 74 91 hvcurveto
          endchar
        </CharString>
        <CharString name="backslash">
          1 210 821 rmoveto
          -192 -86 571 -760 94 48 rlineto
          endchar
        </CharString>
        <CharString name="bar">
          -434 93 876 rmoveto
          -27 -1069 118 6 10 1063 rlineto
          endchar
        </CharString>
        <CharString name="braceleft">
          -230 446 26 rmoveto
          -65 -34 -79 -4 0 vvcurveto
          -66 -3 -45 39 71 29 11 41 29 vvcurveto
          69 -32 48 -60 30 vhcurveto
          61 11 28 41 61 40 -15 51 40 vvcurveto
          73 40 51 79 31 45 -6 -23 53 vhcurveto
          14 196 rlineto
          14 -39 -35 6 -32 hhcurveto
          -196 -41 -133 -97 -111 102 -156 -171 -11 -13 1 3 -13 hvcurveto
          -93 vlineto
          51 -9 66 -30 -97 -46 -12 -47 -47 vvcurveto
          -134 33 -106 125 42 62 10 37 82 vhcurveto
          endchar
        </CharString>
        <CharString name="braceright">
          -230 474 403 rmoveto
          -3 -13 -13 -1 -11 hhcurveto
          -171 102 156 111 97 -41 133 -196 -32 -35 -6 -14 -39 hvcurveto
          14 -196 rlineto
          23 53 45 6 31 hhcurveto
          80 39 -42 -83 hvcurveto
          -39 -15 -51 -40 vvcurveto
          -61 28 -41 61 -11 vhcurveto
          -61 -30 -31 -47 -69 -29 11 -41 -30 vvcurveto
          -71 -45 -39 -66 3 vhcurveto
          0 -79 4 -65 34 vhcurveto
          -185 vlineto
          -37 82 62 -10 42 hhcurveto
          125 33 106 134 hvcurveto
          47 -12 47 46 vvcurveto
          97 66 30 51 9 vhcurveto
          endchar
        </CharString>
        <CharString name="bracketleft">
          -288 93 876 rmoveto
          -27 -1069 301 17 14 196 rlineto
          -205 hlineto
          3 664 rlineto
          206 hlineto
          17 192 rlineto
          endchar
        </CharString>
        <CharString name="bracketright">
          -289 319 876 rmoveto
          -308 hlineto
          17 -192 rlineto
          206 hlineto
          3 -664 rlineto
          -205 hlineto
          13 -196 302 -17 rlineto
          endchar
        </CharString>
        <CharString name="breve">
          -398 173 755 -94 callsubr
        </CharString>
        <CharString name="brokenbar">
          -432 93 876 rmoveto
          -11 -440 rlineto
          108 hlineto
          4 440 rlineto
          -116 -583 rmoveto
          -12 -486 118 6 5 480 rlineto
          endchar
        </CharString>
        <CharString name="bullet">
          -337 308 367 rmoveto
          69 -56 42 -70 -70 -56 -42 -69 -69 56 -42 70 70 56 42 69 vhcurveto
          endchar
        </CharString>
        <CharString name="c">
          -83 callgsubr
          endchar
        </CharString>
        <CharString name="cacute">
          -83 callgsubr
          -162 668 -96 callsubr
        </CharString>
        <CharString name="caron">
          -374 327 758 -87 callgsubr
        </CharString>
        <CharString name="ccaron">
          -107 571 92 rmoveto
          -116 -89 -136 0 -41 hhcurveto
          -154 -140 104 170 14 hvcurveto
          183 14 136 79 133 hhcurveto
          0 77 -1 71 -47 vhcurveto
          17 83 119 -23 -82 -219 -83 10 14 71 rlineto
          -48 38 -43 1 0 vvcurveto
          -109 -58 -74 -101 -111 50 -81 117 hvcurveto
          0 97 1 42 122 vhcurveto
          -29 529 -87 callgsubr
        </CharString>
        <CharString name="ccedilla">
          -106 417 -126 -17 callsubr
          15 43 51 1 120 9 82 106 rlinecurve
          -82 89 rlineto
          -83 callsubr
          -13 -156 117 -100 138 -16 -36 -84 rcurveline
          -72 callsubr
        </CharString>
        <CharString name="ccircumflex">
          -83 callgsubr
          -211 650 -99 callsubr
        </CharString>
        <CharString name="cdotaccent">
          -83 callgsubr
          -208 521 -76 callsubr
        </CharString>
        <CharString name="cedilla">
          -465 232 -141 -17 callsubr
          30 86 rlineto
          -48 hlineto
          -54 -125 rlineto
          -72 callsubr
        </CharString>
        <CharString name="cent">
          -169 432 241 rmoveto
          -37 -73 -90 -47 callsubr
          -93 -40 65 89 81 46 59 87 hvcurveto
          0 43 -1 43 -34 vhcurveto
          -16 -53 66 -8 66 175 -77 16 -22 -71 -22 16 -23 10 -21 7 rlinecurve
          79 209 -96 31 -41 -228 rlineto
          -8 1 -4 -47 callsubr
          -107 -117 -64 -146 -11 hvcurveto
          -9 -108 74 -75 93 -26 -89 -241 rcurveline
          96 -18 45 250 rlineto
          -1 7 8 0 7 hhcurveto
          79 85 34 72 49 hvcurveto
          endchar
        </CharString>
        <CharString name="circumflex">
          -374 227 799 -99 callsubr
        </CharString>
        <CharString name="colon">
          -423 226 74 rmoveto
          40 -38 34 -49 -49 -38 -34 -40 -27 callsubr
          284 vmoveto
          -21 callsubr
          -39 38 -34 49 49 38 34 39 vhcurveto
          endchar
        </CharString>
        <CharString name="comma">
          -442 107 -94 -47 callgsubr
        </CharString>
        <CharString name="copyright">
          -144 351 466 rmoveto
          -6 -27 rlineto
          -36 15 -27 -2 0 vvcurveto
          -59 2 -77 -37 -81 vvcurveto
          -60 37 -52 84 vhcurveto
          0 82 0 25 25 vhcurveto
          -20 61 rlineto
          -41 -26 -48 -47 callsubr
          -48 -27 20 32 36 48 10 39 hvcurveto
          0 29 -1 26 -13 vhcurveto
          -6 -24 37 -7 44 119 rlineto
          102 -116 rmoveto
          125 -46 100 -185 -157 -74 -100 -125 -124 66 -100 165 163 68 -10 callgsubr
          60 75 128 11 callsubr
        </CharString>
        <CharString name="currency">
          -224 240 439 -12 callgsubr
          132 -247 rmoveto
          28 26 17 38 52 vvcurveto
          36 -8 37 -19 30 vhcurveto
          52 70 -75 44 -52 -56 rlineto
          6 -19 -22 4 -25 hhcurveto
          -19 -18 -2 -4 -16 hvcurveto
          -34 56 -103 -66 44 -54 rlineto
          -13 -22 -7 -27 -33 vvcurveto
          -29 6 -29 12 -25 vhcurveto
          -66 -69 119 -78 48 64 rlineto
          -5 17 18 -2 20 hhcurveto
          18 17 1 4 16 hvcurveto
          46 -57 57 31 rlineto
          endchar
        </CharString>
        <CharString name="d">
          2 -55 callgsubr
          endchar
        </CharString>
        <CharString name="dagger">
          -207 156 778 rmoveto
          0 callsubr
          13 -606 rlineto
          78 hlineto
          49 606 0 callgsubr
          rlineto
          endchar
        </CharString>
        <CharString name="daggerdbl">
          -204 285 167 rmoveto
          19 242 0 callgsubr
          -180 -15 0 callsubr
          5 -246 -124 -4 rlineto
          -125 vlineto
          127 -11 5 -220 rlineto
          78 hlineto
          17 211 153 -13 15 171 rlineto
          endchar
        </CharString>
        <CharString name="dcaron">
          135 -55 callgsubr
          439 99 -99 callgsubr
        </CharString>
        <CharString name="dcroat">
          2 699 72 rmoveto
          -106 hlineto
          28 498 64 4 14 95 -72 4 4 73 -170 8 -1 -73 -186 10 13 -137 172 8 -1 -108 -68 callsubr
          endchar
        </CharString>
        <CharString name="degree">
          -408 147 643 rmoveto
          -62 -51 -35 -82 -78 51 -40 62 62 50 38 80 82 -50 35 -62 hvcurveto
          -38 vmoveto
          18 15 -24 -55 -54 -15 -26 -18 -19 -14 27 53 55 14 24 19 hvcurveto
          endchar
        </CharString>
        <CharString name="dieresis">
          -369 332 656 -103 callgsubr
        </CharString>
        <CharString name="divide">
          -200 42 410 -37 callsubr
          -139 112 rmoveto
          37 -35 31 -45 -44 -36 -31 -37 -36 36 -30 44 45 35 30 36 vhcurveto
          -342 vmoveto
          37 -35 30 -45 -44 -36 -30 -37 -36 36 -31 44 45 35 31 36 vhcurveto
          endchar
        </CharString>
        <CharString name="dollar">
          -194 306 -138 rmoveto
          -18 231 rlineto
          74 109 26 90 hvcurveto
          119 -291 19 40 vvcurveto
          36 49 6 26 51 71 -36 -23 43 vhcurveto
          54 138 -81 16 -8 -71 -12 11 -42 26 -51 12 rlinecurve
          26 216 rlineto
          -101 hlineto
          16 -209 rlineto
          -79 -3 -93 -40 -91 vvcurveto
          -72 120 -38 58 -17 vhcurveto
          26 -8 71 -14 -35 vvcurveto
          -26 -43 -5 -20 -58 -83 40 29 -47 vhcurveto
          -45 -127 82 -28 8 63 28 -22 45 -13 42 -6 rlinecurve
          -28 -234 rlineto
          endchar
        </CharString>
        <CharString name="dotaccent">
          -568 133 656 -76 callsubr
        </CharString>
        <CharString name="dotlessi">
          -86 callsubr
          endchar
        </CharString>
        <CharString name="dotlessj">
          -356 -18 -209 -75 callsubr
          endchar
        </CharString>
        <CharString name="e">
          -104 callgsubr
          endchar
        </CharString>
        <CharString name="eacute">
          -104 callgsubr
          -10 439 -96 callsubr
        </CharString>
        <CharString name="ebreve">
          -104 callgsubr
          -86 369 -94 callsubr
        </CharString>
        <CharString name="ecaron">
          -90 599 167 rmoveto
          -129 -49 -136 -59 -120 hhcurveto
          -167 -95 111 134 -8 hvcurveto
          205 147 81 177 99 121 -34 -183 19 vhcurveto
          -401 -72 11 -90 40 -88 92 3 rlinecurve
          0 137 8 -14 148 vhcurveto
          -38 122 rmoveto
          -9 123 -121 -10 0 vvcurveto
          -86 -10 -16 -72 -72 vvcurveto
          287 425 -87 callgsubr
        </CharString>
        <CharString name="ecircumflex">
          -104 callgsubr
          -39 408 -99 callsubr
        </CharString>
        <CharString name="edieresis">
          -104 callgsubr
          63 277 -103 callgsubr
        </CharString>
        <CharString name="edotaccent">
          -104 callgsubr
          -42 276 -76 callsubr
        </CharString>
        <CharString name="egrave">
          -104 callgsubr
          -247 423 -71 callgsubr
        </CharString>
        <CharString name="eight">
          -61 603 159 rmoveto
          0 0 111 -97 45 vhcurveto
          59 42 0 74 0 vvcurveto
          116 -105 71 -140 -141 -105 -71 -116 0 1 -74 57 -42 vhcurveto
          -96 -45 0 -111 0 vvcurveto
          -146 199 -29 85 84 199 29 146 vhcurveto
          -107 35 rmoveto
          -56 -79 -22 -97 -98 -79 25 53 49 79 29 98 97 79 -26 -52 vhcurveto
          -36 226 rmoveto
          -48 -63 -24 -77 -78 -63 27 45 51 63 20 78 77 63 -22 -49 vhcurveto
          endchar
        </CharString>
        <CharString name="ellipsis">
          37 210 74 rmoveto
          -37 callgsubr
          246 hmoveto
          -37 callgsubr
          246 hmoveto
          -37 callgsubr
          endchar
        </CharString>
        <CharString name="emacron">
          -104 callgsubr
          63 326 -59 callgsubr
        </CharString>
        <CharString name="emdash">
          12 55 410 rmoveto
          -147 600 147 vlineto
          endchar
        </CharString>
        <CharString name="endash">
          -5 callgsubr
        </CharString>
        <CharString name="eng">
          49 264 89 -51 callgsubr
          -49 -16 -166 -12 -90 vhcurveto
          -113 -15 -25 -49 -78 hhcurveto
          -42 -53 36 29 -34 hvcurveto
          -26 callgsubr
          191 86 100 133 13 hvcurveto
          31 325 rlineto
          -79 callsubr
          endchar
        </CharString>
        <CharString name="eogonek">
          -90 524 -71 -54 callgsubr
          -8 34 69 54 hvcurveto
          62 30 52 50 27 70 -147 35 rcurveline
          -93 callsubr
          19 20 2 3 20 hvcurveto
          -26 -32 -7 -30 -23 -51 callsubr
          -372 454 -63 callsubr
          endchar
        </CharString>
        <CharString name="equal">
          -176 50 480 rmoveto
          13 -147 398 20 14 105 rlineto
          -14 -198 rmoveto
          -398 -20 -13 -105 425 -22 rlineto
          endchar
        </CharString>
        <CharString name="eth">
          -80 141 601 rmoveto
          -3 23 -34 0 vhcurveto
          108 52 39 -34 32 -36 27 -37 rlinecurve
          -29 callgsubr
          188 -90 135 -93 89 vhcurveto
          79 38 -65 94 rlineto
          0 -40 -30 -50 -38 vhcurveto
          -67 50 -53 23 0 vvcurveto
          -124 -92 51 -17 45 -22 39 -25 rlinecurve
          -42 -31 -31 -25 -1 vvcurveto
          164 -156 -19 callgsubr
        </CharString>
        <CharString name="exclam">
          -371 45 713 rmoveto
          87 -485 rlineto
          90 hlineto
          47 505 rlineto
          -654 vmoveto
          45 -43 37 -54 -53 -44 -37 -45 -44 44 -37 53 54 43 37 44 vhcurveto
          endchar
        </CharString>
        <CharString name="exclamdown">
          -390 275 -182 rmoveto
          -87 485 rlineto
          -90 hlineto
          -47 -505 rlineto
          654 vmoveto
          -45 43 -37 54 53 44 37 45 44 -44 37 -53 -54 -43 -37 -44 vhcurveto
          endchar
        </CharString>
        <CharString name="f">
          -200 495 474 rmoveto
          -180 7 -48 callgsubr
          185 10 rlineto
          endchar
        </CharString>
        <CharString name="fi">
          234 799 102 rmoveto
          37 374 -521 5 -48 callgsubr
          371 -24 1 -288 -148 -9 16 -89 -24 callgsubr
          -8 callsubr
          -94 480 -55 callsubr
          endchar
        </CharString>
        <CharString name="five">
          -55 602 190 rmoveto
          167 -1 -171 25 -99 hhcurveto
          0 -98 0 -78 -33 vhcurveto
          44 128 389 -13 14 147 rlineto
          -494 hlineto
          -62 -313 60 -23 rlineto
          96 45 101 -47 callsubr
          102 56 -23 -68 4 hvcurveto
          -67 5 -67 -37 -84 hhcurveto
          0 -122 0 -139 62 vhcurveto
          -23 -155 rlineto
          -24 84 93 -16 117 hhcurveto
          140 134 37 161 -1 hvcurveto
          endchar
        </CharString>
        <CharString name="fl">
          181 734 103 rmoveto
          48 608 -357 -1 rlineto
          -57 callsubr
          185 10 rlineto
          58 vlineto
          -180 7 rlineto
          98 67 43 61 vhcurveto
          0 91 0 82 -39 vhcurveto
          1 -489 -41 callgsubr
          rlineto
          endchar
        </CharString>
        <CharString name="four">
          -22 628 142 rmoveto
          -151 hlineto
          11 109 158 10 rlineto
          76 vlineto
          -150 -7 29 288 -210 26 -308 -346 14 -74 366 21 4 -103 rlineto
          -212 hlineto
          -14 -150 463 14 rlineto
          -251 520 rmoveto
          7 -201 -168 -8 rlineto
          endchar
        </CharString>
        <CharString name="fraction">
          -259 371 571 -39 callgsubr
          endchar
        </CharString>
        <CharString name="g">
          -101 callgsubr
          endchar
        </CharString>
        <CharString name="gbreve">
          -101 callgsubr
          -67 561 -94 callsubr
        </CharString>
        <CharString name="gcircumflex">
          -101 callgsubr
          -26 590 -99 callsubr
        </CharString>
        <CharString name="gcommaaccent">
          -101 callgsubr
          -74 564 -28 callgsubr
          rrcurveto
          endchar
        </CharString>
        <CharString name="gdotaccent">
          -101 callgsubr
          -49 466 -76 callsubr
        </CharString>
        <CharString name="germandbls">
          218 643 557 rmoveto
          150 -218 3 0 -194 -66 -82 -141 -13 vhcurveto
          -143 7 rlineto
          -103 vlineto
          140 9 rlineto
          -10 vlineto
          9 -309 -109 -6 6 -79 253 -10 rlineto
          22 1 357 vlineto
          1 198 33 45 70 14 rrcurveto
          0 100 1 -71 -108 -122 -3 -95 vvcurveto
          -106 149 -45 73 -20 vhcurveto
          39 -11 82 -18 -42 vvcurveto
          -33 -53 -6 -25 -73 -104 50 37 -59 -27 callgsubr
          -39 51 94 -17 65 hhcurveto
          94 137 37 102 hvcurveto
          167 -392 1 68 67 117 -7 141 vvcurveto
          endchar
        </CharString>
        <CharString name="grave">
          -428 130 801 -71 callgsubr
        </CharString>
        <CharString name="greater">
          -13 callsubr
          -127 49 -229 352 270 rlineto
          endchar
        </CharString>
        <CharString name="greaterequal">
          -13 callsubr
          -47 19 -179 382 140 rlineto
          -412 -211 -37 callsubr
          endchar
        </CharString>
        <CharString name="guillemotleft">
          18 104 232 -34 callsubr
          64 186 -34 callsubr
          endchar
        </CharString>
        <CharString name="guillemotright">
          18 615 262 -18 callgsubr
          -64 -186 -18 callgsubr
          endchar
        </CharString>
        <CharString name="guilsinglleft">
          -309 104 232 -34 callsubr
          endchar
        </CharString>
        <CharString name="guilsinglright">
          -309 362 331 rmoveto
          -305 186 -32 -68 263 -187 -247 -101 39 -184 282 217 rlineto
          endchar
        </CharString>
        <CharString name="h">
          -54 callsubr
          endchar
        </CharString>
        <CharString name="hbar">
          -64 callgsubr
          4 87 152 28 -2 73 -145 -14 6 118 -3 callsubr
          rlineto
          -43 vlineto
          -96 -9 20 -105 78 14 5 -401 -15 callgsubr
          endchar
        </CharString>
        <CharString name="hcircumflex">
          -54 callsubr
          173 629 -99 callsubr
        </CharString>
        <CharString name="hungarumlaut">
          -279 83 805 -61 callgsubr
        </CharString>
        <CharString name="hyphen">
          -177 52 410 -37 callsubr
          endchar
        </CharString>
        <CharString name="i">
          -86 callsubr
          -94 480 -55 callsubr
          endchar
        </CharString>
        <CharString name="iacute">
          -86 callsubr
          -60 610 -96 callsubr
        </CharString>
        <CharString name="ibreve">
          -86 callsubr
          -190 551 -94 callsubr
        </CharString>
        <CharString name="icircumflex">
          -86 callsubr
          -137 592 -99 callsubr
        </CharString>
        <CharString name="idieresis">
          -86 callsubr
          -35 463 -103 callgsubr
        </CharString>
        <CharString name="igrave">
          -86 callsubr
          -304 604 -71 callgsubr
        </CharString>
        <CharString name="ij">
          67 -88 callsubr
          -94 480 -55 callsubr
          355 20 -52 callsubr
        </CharString>
        <CharString name="imacron">
          -86 callsubr
          -41 509 -59 callgsubr
        </CharString>
        <CharString name="infinity">
          183 844 322 rmoveto
          83 -35 101 -115 vhcurveto
          0 -98 0 -110 -108 vhcurveto
          -160 94 -102 -47 callsubr
          -81 -102 -70 -124 -123 81 -52 91 hvcurveto
          0 90 0 114 111 vhcurveto
          127 -116 123 -47 callsubr
          86 91 81 123 hvcurveto
          -107 31 rmoveto
          -30 -32 -30 -30 vhcurveto
          0 -29 0 -97 60 vhcurveto
          69 58 52 -47 callsubr
          52 15 -29 -29 hvcurveto
          -379 -73 rmoveto
          -83 -70 -62 -47 callsubr
          -63 -17 34 36 36 38 36 36 hvcurveto
          0 36 0 115 -72 vhcurveto
          endchar
        </CharString>
        <CharString name="iogonek">
          -267 304 -82 -54 callgsubr
          -6 28 49 45 hvcurveto
          193 -5 4 callsubr
          -131 -9 -80 callsubr
          103 -3 rlineto
          -42 -40 -10 -37 -28 -51 callsubr
          1 773 -55 callsubr
          endchar
        </CharString>
        <CharString name="itilde">
          -86 callsubr
          -139 538 -97 callgsubr
        </CharString>
        <CharString name="j">
          -356 267 611 -52 callsubr
        </CharString>
        <CharString name="jcircumflex">
          -356 -18 -209 -75 callsubr
          254 930 -99 callsubr
        </CharString>
        <CharString name="k">
          -46 callsubr
          endchar
        </CharString>
        <CharString name="kcommaaccent">
          -46 callsubr
          -355 -201 -99 callgsubr
        </CharString>
        <CharString name="kgreenlandic">
          -6 callgsubr
          212 108 70 -9 callgsubr
          -180 -150 11 157 -273 -8 rlineto
          -85 vlineto
          105 -5 -9 -289 -9 callsubr
          8 123 21 13 -2 callgsubr
          endchar
        </CharString>
        <CharString name="l">
          -315 -66 callsubr
          endchar
        </CharString>
        <CharString name="lacute">
          -315 -66 callsubr
          -28 847 -96 callsubr
        </CharString>
        <CharString name="lcaron">
          -234 -66 callsubr
          2 411 -99 callgsubr
        </CharString>
        <CharString name="lcommaaccent">
          -315 -66 callsubr
          -206 -321 -99 callgsubr
        </CharString>
        <CharString name="ldotaccent">
          -133 -66 callsubr
          147 244 -30 callgsubr
        </CharString>
        <CharString name="less">
          -20 callgsubr
          -233 39 85 rlineto
          endchar
        </CharString>
        <CharString name="lessequal">
          -20 callgsubr
          -103 29 85 rlineto
          -407 -156 -37 callsubr
          endchar
        </CharString>
        <CharString name="logicalnot">
          -194 37 420 rmoveto
          13 -157 298 15 8 -143 rlineto
          82 hlineto
          24 263 rlineto
          endchar
        </CharString>
        <CharString name="lslash">
          -279 289 433 rmoveto
          22 278 -30 callsubr
          rlineto
          -210 vlineto
          -140 -35 34 -124 106 39 1 -184 -41 callgsubr
          -145 -10 17 224 124 45 -1 90 rlineto
          endchar
        </CharString>
        <CharString name="m">
          324 596 100 rmoveto
          16 141 6 8 69 vvcurveto
          19 -2 19 -3 17 vhcurveto
          53 35 33 4 -11 callgsubr
          15 117 -105 -6 rlineto
          17 140 6 10 67 vvcurveto
          108 -49 73 -130 vhcurveto
          0 -84 -3 -87 -58 vhcurveto
          38 -28 -47 23 -71 hhcurveto
          0 -71 -4 -80 -45 vhcurveto
          5 63 -65 callgsubr
          -110 -5 20 279 rlineto
          58 41 40 3 -11 callgsubr
          14 117 rlineto
          endchar
        </CharString>
        <CharString name="macron">
          -358 343 727 -59 callgsubr
        </CharString>
        <CharString name="minus">
          -173 53 410 -37 callsubr
          endchar
        </CharString>
        <CharString name="mu">
          69 741 75 rmoveto
          -105 9 -6 319 111 5 rlineto
          79 vlineto
          -334 12 -10 -105 3 callgsubr
          -15 -206 rlineto
          -61 -114 -88 -92 callgsubr
          -12 -100 -7 -34 -3 -40 rlinecurve
          -15 -131 -35 -358 0 vvcurveto
          173 hlineto
          -9 270 rlineto
          -3 13 15 -1 17 hhcurveto
          0 100 0 98 78 vhcurveto
          -6 -80 rlineto
          264 hlineto
          endchar
        </CharString>
        <CharString name="multiply">
          -99 391 286 rmoveto
          180 242 -117 37 -144 -151 -95 151 -151 -61 154 -187 -185 -194 182 -72 105 141 117 -141 76 42 rlineto
          endchar
        </CharString>
        <CharString name="n">
          -85 callsubr
          endchar
        </CharString>
        <CharString name="nacute">
          -85 callsubr
          113 651 -96 callsubr
        </CharString>
        <CharString name="napostrophe">
          182 51 524 -100 callgsubr
          361 -480 -91 callsubr
          endchar
        </CharString>
        <CharString name="nbspace">
          -401 endchar
        </CharString>
        <CharString name="ncaron">
          49 374 94 rmoveto
          -9 -105 -335 2 rlineto
          89 vlineto
          101 4 -7 307 -104 -3 rlineto
          89 vlineto
          274 35 -7 -93 rlineto
          95 73 101 6 0 vvcurveto
          2 callsubr
          -72 -108 -69 -6 -8 -16 -141 hvcurveto
          104 6 -14 -117 -261 10 rlineto
          23 229 6 19 57 vvcurveto
          59 -17 47 -55 2 vhcurveto
          0 -61 -4 -83 -77 vhcurveto
          -17 -242 rlineto
          297 620 -87 callgsubr
        </CharString>
        <CharString name="ncommaaccent">
          -85 callsubr
          -15 -302 -99 callgsubr
        </CharString>
        <CharString name="nine">
          -31 635 353 rmoveto
          181 -127 91 -175 -175 -127 -94 -133 -132 116 -57 197 vhcurveto
          0 133 0 76 76 vhcurveto
          -126 -36 -137 -27 -137 hhcurveto
          -38 -43 3 9 -43 hvcurveto
          -23 -138 rlineto
          -10 55 51 -4 45 hhcurveto
          305 83 204 157 hvcurveto
          -306 135 rmoveto
          110 2 99 -39 20 -72 rrcurveto
          -69 -111 -145 -47 callsubr
          -96 -93 29 70 3 hvcurveto
          3 71 45 47 123 3 rrcurveto
          endchar
        </CharString>
        <CharString name="notequal">
          -180 456 260 rmoveto
          -189 -10 65 97 124 6 14 105 -61 3 56 82 -131 58 -69 -133 -220 12 13 -147 140 7 -50 -96 -90 -4 -13 -105 45 -3 -40 -76 64 -33 70 104 286 -14 rlineto
          endchar
        </CharString>
        <CharString name="ntilde">
          -85 callsubr
          81 608 -97 callgsubr
        </CharString>
        <CharString name="numbersign">
          -64 445 310 rmoveto
          12 88 129 8 20 127 rlineto
          -130 hlineto
          24 171 rlineto
          -92 hlineto
          -25 -171 rlineto
          -72 hlineto
          18 103 rlineto
          -110 hlineto
          -13 -103 rlineto
          -107 hlineto
          -20 -158 108 6 -9 -71 rlineto
          -127 hlineto
          -17 -116 129 -9 -13 -106 rlineto
          83 hlineto
          17 101 80 -6 -18 -127 rlineto
          96 hlineto
          17 121 113 -7 34 149 rlineto
          -286 77 rmoveto
          76 5 -12 -82 rlineto
          -77 hlineto
          endchar
        </CharString>
        <CharString name="o">
          -101 callsubr
          endchar
        </CharString>
        <CharString name="oacute">
          -101 callsubr
          123 312 -96 callsubr
        </CharString>
        <CharString name="obreve">
          -101 callsubr
          20 247 -94 callsubr
        </CharString>
        <CharString name="ocircumflex">
          -101 callsubr
          81 288 -99 callsubr
        </CharString>
        <CharString name="odieresis">
          -101 callsubr
          164 162 -103 callgsubr
        </CharString>
        <CharString name="oe">
          319 861 -42 callsubr
          -98 -88 -25 -56 -60 hvcurveto
          49 -44 -67 33 -98 -3 callgsubr
          -147 89 -141 201 84 70 25 48 47 hvcurveto
          -40 45 63 -24 79 -10 callsubr
          -722 278 rmoveto
          116 29 -188 -78 -61 -18 -81 -83 -118 -35 165 78 64 24 101 85 hvcurveto
          305 -161 -25 callsubr
          endchar
        </CharString>
        <CharString name="ogonek">
          -441 217 -113 -54 callgsubr
          -10 40 92 63 hvcurveto
          -35 23 rlineto
          -104 -57 -20 -60 -39 -51 callsubr
          endchar
        </CharString>
        <CharString name="ograve">
          -101 callsubr
          -118 309 -71 callgsubr
        </CharString>
        <CharString name="ohungarumlaut">
          -101 callsubr
          -28 306 -61 callgsubr
        </CharString>
        <CharString name="omacron">
          -101 callsubr
          169 211 -59 callgsubr
        </CharString>
        <CharString name="one">
          -156 528 184 rmoveto
          -203 -19 18 464 -312 -75 21 -135 167 31 23 -293 -190 -18 12 -147 rlineto
          464 hlineto
          endchar
        </CharString>
        <CharString name="onehalf">
          62 719 137 rmoveto
          -141 -11 rlineto
          140 83 1 62 0 vvcurveto
          75 2 -62 16 -67 hhcurveto
          0 -66 0 -72 -35 vhcurveto
          11 -77 rlineto
          28 49 43 10 31 hhcurveto
          31 20 -10 -15 -57 -102 -58 -68 -30 hvcurveto
          -68 vlineto
          250 7 rlineto
          -199 514 -39 callgsubr
          -322 -177 -22 callgsubr
        </CharString>
        <CharString name="onequarter">
          16 673 -32 callsubr
          -148 512 -39 callgsubr
          -327 -177 rmoveto
          -97 -9 8 223 -150 -36 10 -65 -19 callsubr
          281 49 11 callgsubr
        </CharString>
        <CharString name="onesuperior">
          -382 279 341 -22 callgsubr
        </CharString>
        <CharString name="ordfeminine">
          -262 340 418 rmoveto
          23 84 3 36 0 vvcurveto
          1 37 -3 111 -153 -3 rrcurveto
          0 -151 -4 -12 -108 vhcurveto
          95 4 rlineto
          11 57 51 3 0 vvcurveto
          59 2 18 -23 -38 vvcurveto
          -13 -1 -13 -2 -15 vhcurveto
          2 -14 -16 1 -21 hhcurveto
          -60 -127 -13 -85 -54 62 -16 49 33 36 7 19 34 hvcurveto
          0 -4 -18 -2 -12 vhcurveto
          146 -11 15 54 rlineto
          -138 87 rmoveto
          -2 -17 -3 -17 -3 -16 -19 -7 -27 -9 -29 -6 rrcurveto
          -29 -5 -25 17 19 vvcurveto
          36 76 6 30 vhcurveto
          11 11 -1 9 hhcurveto
          -208 -179 -20 callsubr
        </CharString>
        <CharString name="ordmasculine">
          -272 378 517 rmoveto
          83 -43 88 -125 -92 -74 -48 -104 -88 54 -85 120 94 66 51 103 vhcurveto
          -177 131 -12 callgsubr
          -141 -331 -20 callsubr
        </CharString>
        <CharString name="oslash">
          -65 callsubr
          endchar
        </CharString>
        <CharString name="oslashacute">
          -65 callsubr
          85 713 -96 callsubr
        </CharString>
        <CharString name="otilde">
          -101 callsubr
          71 247 -97 callgsubr
        </CharString>
        <CharString name="p">
          -15 358 -120 rmoveto
          -105 -6 2 160 rlineto
          55 -11 callsubr
          -76 -54 -29 -31 -36 hvcurveto
          1 70 6 callsubr
          -546 -4 callgsubr
          -59 0 -54 50 vhcurveto
          3 243 rlineto
          48 75 60 -4 callsubr
        </CharString>
        <CharString name="paragraph">
          157 673 578 rmoveto
          47 -7 42 -8 31 -9 27 141 rcurveline
          -279 50 -228 -32 4 callgsubr
          -27 -96 -83 -111 vvcurveto
          -217 328 -29 182 5 vhcurveto
          -1 -135 -165 -22 rlineto
          -111 vlineto
          414 27 3 141 -146 -20 rlineto
          endchar
        </CharString>
        <CharString name="parenleft">
          -260 423 889 rmoveto
          1 -12 -11 1 -15 hhcurveto
          -358 -1 -533 0 0 0 -573 367 22 hvcurveto
          6 199 rlineto
          -287 47 0 322 0 vvcurveto
          0 0 302 281 10 10 0 -1 10 vhcurveto
          endchar
        </CharString>
        <CharString name="parenright">
          -260 415 358 rmoveto
          0 0 533 -362 -11 -12 -1 -1 -12 vhcurveto
          -213 vlineto
          1 10 10 0 10 hhcurveto
          282 0 -302 0 0 0 -322 -288 -47 hvcurveto
          7 -199 rlineto
          366 -22 0 573 0 vvcurveto
          endchar
        </CharString>
        <CharString name="partialdiff">
          -81 85 722 rmoveto
          140 -46 91 -83 60 -84 rrcurveto
          -29 callgsubr
          386 -379 163 0 vhcurveto
          102 -369 -19 callgsubr
        </CharString>
        <CharString name="percent">
          93 353 -62 callgsubr
          endchar
        </CharString>
        <CharString name="period">
          -455 210 74 rmoveto
          -37 callgsubr
          endchar
        </CharString>
        <CharString name="periodcentered">
          -431 232 357 -30 callgsubr
        </CharString>
        <CharString name="perthousand">
          434 359 -62 callgsubr
          478 -327 -53 callgsubr
          endchar
        </CharString>
        <CharString name="plus">
          -206 302 -31 callsubr
          endchar
        </CharString>
        <CharString name="plusminus">
          -201 305 -31 callsubr
          -425 -349 -37 callsubr
          endchar
        </CharString>
        <CharString name="q">
          -67 683 -133 rmoveto
          -109 8 -12 633 rlineto
          -118 hlineto
          -3 -88 rlineto
          36 -36 -59 40 -88 hhcurveto
          -83 -148 -49 -202 -207 146 -51 119 hvcurveto
          0 80 0 55 35 vhcurveto
          -8 -235 rlineto
          264 hlineto
          -365 640 rmoveto
          0 71 -1 48 -97 vhcurveto
          -7 -218 rlineto
          -55 -52 -60 -47 callsubr
          -80 -39 102 80 81 34 105 88 hvcurveto
          endchar
        </CharString>
        <CharString name="question">
          42 147 534 rmoveto
          37 86 100 22 98 hhcurveto
          51 73 -10 -68 -43 -37 -42 -105 -25 hvcurveto
          0 -191 -44 12 -147 vhcurveto
          73 hlineto
          77 128 24 0 vhcurveto
          127 23 150 30 4 158 3 157 -110 74 -201 3 rrcurveto
          0 -158 2 -103 -39 vhcurveto
          37 vlineto
          -121 -13 67 -311 54 15 rlineto
          224 -372 rmoveto
          45 -44 37 -53 -13 callgsubr
          53 44 37 44 vhcurveto
          endchar
        </CharString>
        <CharString name="questiondown">
          38 596 26 rmoveto
          -62 -26 -65 -13 0 vvcurveto
          -9 -45 -60 -10 -52 hhcurveto
          -56 -48 11 34 -13 hvcurveto
          -5 11 -2 11 11 vvcurveto
          43 37 42 105 25 vhcurveto
          0 191 44 -12 147 vhcurveto
          -73 hlineto
          -77 -128 -24 0 vhcurveto
          -127 -23 -150 -30 -4 -158 -3 -157 110 -74 201 -3 rrcurveto
          0 157 -2 104 39 vhcurveto
          -37 vlineto
          121 13 -67 311 -54 -15 rlineto
          -224 372 rmoveto
          -45 44 -37 53 54 43 37 45 44 -43 37 -54 -53 -44 -37 -44 vhcurveto
          endchar
        </CharString>
        <CharString name="quotedbl">
          -290 25 766 rmoveto
          47 -330 rlineto
          90 hlineto
          34 304 rlineto
          26 26 rmoveto
          20 5 callsubr
        </CharString>
        <CharString name="quotedblbase">
          -234 107 -94 -48 callsubr
        </CharString>
        <CharString name="quotedblleft">
          -248 355 700 -43 callsubr
          rrcurveto
          -229 64 -43 callsubr
          rrcurveto
          endchar
        </CharString>
        <CharString name="quotedblright">
          -252 96 458 -48 callsubr
        </CharString>
        <CharString name="quoteleft">
          -456 147 700 -43 callsubr
          -21 64 rcurveline
          endchar
        </CharString>
        <CharString name="quoteright">
          -460 96 458 -47 callgsubr
        </CharString>
        <CharString name="quotesinglbase">
          -442 107 -94 -47 callgsubr
        </CharString>
        <CharString name="quotesingle">
          -460 25 766 rmoveto
          47 5 callsubr
        </CharString>
        <CharString name="r">
          -63 callgsubr
          endchar
        </CharString>
        <CharString name="racute">
          -63 callgsubr
          -19 642 -96 callsubr
        </CharString>
        <CharString name="radical">
          -72 470 735 rmoveto
          -120 -645 -97 256 10 callsubr
          63 -276 200 13 192 705 rlineto
          endchar
        </CharString>
        <CharString name="rcaron">
          -103 430 112 rmoveto
          -82 vlineto
          -376 -48 -14 125 125 1 6 271 -152 11 rlineto
          83 vlineto
          316 28 -16 -109 44 46 128 91 81 15 rlinecurve
          13 -162 rlineto
          -186 -85 -78 0 hvcurveto
          -34 -194 rlineto
          178 603 -87 callgsubr
        </CharString>
        <CharString name="rcommaaccent">
          -63 callgsubr
          -223 -320 -99 callgsubr
        </CharString>
        <CharString name="registered">
          -175 359 467 rmoveto
          -31 vlineto
          -11 -3 -14 15 -7 4 -14 14 rlinecurve
          49 12 21 26 1 30 rrcurveto
          45 3 -52 24 -66 hhcurveto
          0 -65 0 -63 -18 vhcurveto
          9 -61 29 4 2 -36 3 -26 1 -35 rlinecurve
          -39 3 rlineto
          -66 vlineto
          135 11 -5 47 -42 3 rlineto
          14 0 3 12 vvcurveto
          11 hlineto
          7 5 -1 1 6 hvcurveto
          50 -80 rlineto
          75 hlineto
          13 89 rlineto
          -163 29 rmoveto
          -3 hlineto
          4 46 rlineto
          2 13 10 0 13 hhcurveto
          26 11 -9 -7 1 hvcurveto
          -30 6 -55 -2 -26 hhcurveto
          255 -16 rmoveto
          125 -46 100 -185 -156 -74 -100 -125 -124 65 -100 165 164 67 -10 callgsubr
          61 75 127 11 callsubr
        </CharString>
        <CharString name="ring">
          -466 235 708 -74 callsubr
        </CharString>
        <CharString name="s">
          -79 callgsubr
          endchar
        </CharString>
        <CharString name="sacute">
          -79 callgsubr
          -168 248 -96 callsubr
        </CharString>
        <CharString name="scaron">
          -103 573 500 rmoveto
          -48 -166 rlineto
          34 -64 -97 33 -73 hhcurveto
          -51 -35 -16 -29 -37 57 -14 118 -28 hvcurveto
          106 -25 83 -32 -98 vvcurveto
          -104 -93 -37 -125 vhcurveto
          -153 -61 56 -9 hhcurveto
          -10 -79 -103 35 56 159 rlineto
          -38 61 142 -59 74 hhcurveto
          23 39 6 33 42 -67 18 -39 11 hvcurveto
          -93 26 -169 48 116 vvcurveto
          79 77 68 136 127 91 -59 0 vhcurveto
          -2 77 rlineto
          -14 189 -87 callgsubr
        </CharString>
        <CharString name="scedilla">
          -103 407 -131 -17 callsubr
          19 55 rlineto
          -1 12 12 -1 14 -58 callsubr
          -102 20 -71 callsubr
          7 39 -35 -14 90 hvcurveto
          -42 -99 rlineto
          -72 callsubr
        </CharString>
        <CharString name="scircumflex">
          -79 callgsubr
          -211 232 -99 callsubr
        </CharString>
        <CharString name="section">
          91 40 559 rmoveto
          -27 4 -22 8 -20 vhcurveto
          -8 -21 -4 -24 -26 -73 callgsubr
          rlineto
          -31 99 89 -21 110 -22 callsubr
          26 -4 23 -7 20 hvcurveto
          7 21 4 23 27 vvcurveto
          -21 callgsubr
          vhcurveto
          -61 callsubr
          -80 32 -21 -95 rlineto
          -90 58 -171 5 4 callgsubr
          4 -170 -66 -166 vvcurveto
          369 -196 rmoveto
          146 -4 73 -7 1 -70 -65 28 -81 2 -57 1 -139 2 -85 3 -13 58 rrcurveto
          -1 3 -1 4 3 vvcurveto
          69 -19 82 -2 71 -2 rrcurveto
          endchar
        </CharString>
        <CharString name="semicolon">
          -415 123 -93 rmoveto
          59 16 58 42 69 vvcurveto
          58 -36 56 -65 -49 -39 -33 -40 -40 39 -33 49 10 10 1 3 -35 callgsubr
          rrcurveto
          124 388 rmoveto
          40 -39 34 -48 -35 callsubr
          48 39 33 40 vhcurveto
          endchar
        </CharString>
        <CharString name="seven">
          -147 533 605 rmoveto
          -476 -14 -32 -212 rlineto
          65 hlineto
          14 87 306 5 -70 -58 -128 -131 -122 -265 rlinecurve
          172 -31 18 186 140 201 133 139 rlinecurve
          endchar
        </CharString>
        <CharString name="six">
          -31 639 218 rmoveto
          133 -116 56 -197 vhcurveto
          0 -133 0 -76 -76 vhcurveto
          126 35 138 27 137 hhcurveto
          39 43 -3 -9 43 hvcurveto
          22 139 rlineto
          10 -55 -51 4 -45 hhcurveto
          -305 -83 -204 -158 -180 127 -91 175 175 127 93 133 hvcurveto
          -298 -89 rmoveto
          -111 -3 -100 40 -19 71 rrcurveto
          69 112 146 -47 callsubr
          96 93 -29 -71 -3 hvcurveto
          -3 -70 -45 -48 -123 -2 rrcurveto
          endchar
        </CharString>
        <CharString name="slash">
          1 492 821 rmoveto
          -473 -798 93 -48 572 760 rlineto
          endchar
        </CharString>
        <CharString name="space">
          -401 endchar
        </CharString>
        <CharString name="sterling">
          123 276 374 rmoveto
          4 65 4 66 35 66 72 -11 rlinecurve
          0 73 -10 109 -90 vhcurveto
          61 176 rlineto
          -125 79 -133 3 0 vvcurveto
          -133 4 -101 -97 6 -151 5 -109 rcurveline
          -114 -7 rlineto
          -66 vlineto
          117 -4 7 -151 -99 3 -75 callgsubr
          672 25 61 290 rlineto
          -102 hlineto
          -25 -176 -406 10 8 150 158 -4 14 104 rlineto
          endchar
        </CharString>
        <CharString name="t">
          -163 -77 callgsubr
          endchar
        </CharString>
        <CharString name="tbar">
          -163 244 191 rmoveto
          158 -9 7 125 -160 -9 2 31 4 31 5 32 rlinecurve
          -70 callgsubr
          -43 vlineto
          -98 -5 rlineto
          -80 vlineto
          103 -7 rlineto
          -119 13 46 -99 161 hhcurveto
          56 75 15 58 78 hvcurveto
          -38 callsubr
          endchar
        </CharString>
        <CharString name="tcaron">
          -30 -77 callgsubr
          345 336 -99 callgsubr
        </CharString>
        <CharString name="tcommaaccent">
          -163 -77 callgsubr
          9 -396 -99 callgsubr
        </CharString>
        <CharString name="thorn">
          -50 323 -120 rmoveto
          -106 -6 2 160 rlineto
          56 -11 callsubr
          -77 -55 -30 -32 -36 hvcurveto
          3 289 6 callsubr
          -763 -4 callgsubr
          -60 0 -54 51 vhcurveto
          3 239 rlineto
          48 78 61 -4 callsubr
        </CharString>
        <CharString name="three">
          -51 439 277 rmoveto
          102 20 65 49 108 vvcurveto
          146 -159 31 -113 -99 -100 -10 -22 -96 vhcurveto
          24 -183 rlineto
          37 77 102 27 87 hhcurveto
          55 81 -12 -71 -80 -154 -16 -53 -3 hvcurveto
          3 -46 rlineto
          41 -2 164 -13 -67 vvcurveto
          -58 -109 -1 -38 -83 -105 20 36 -73 vhcurveto
          -17 -158 rlineto
          -27 67 88 -18 74 hhcurveto
          97 237 5 144 93 -84 51 -81 20 hvcurveto
          endchar
        </CharString>
        <CharString name="threequarters">
          40 697 -32 callsubr
          -469 328 -49 callgsubr
          321 184 -39 callgsubr
          -46 -221 11 callgsubr
        </CharString>
        <CharString name="threesuperior">
          -344 234 387 -49 callgsubr
          endchar
        </CharString>
        <CharString name="tilde">
          -330 259 749 -97 callgsubr
        </CharString>
        <CharString name="trademark">
          65 199 485 rmoveto
          11 132 rlineto
          59 hlineto
          1 -51 43 5 -13 116 -237 -8 -8 -113 rlineto
          39 hlineto
          16 1 18 16 vvcurveto
          51 hlineto
          11 -129 -57 2 rlineto
          -63 vlineto
          157 5 1 53 rlineto
          215 -7 rmoveto
          -49 3 9 114 80 -147 rlineto
          22 hlineto
          18 46 32 48 19 47 5 -41 5 -24 6 -40 -51 2 rcurveline
          -65 vlineto
          150 12 -2 50 rlineto
          -16 -20 1 -17 hhcurveto
          -1 47 -3 46 -1 46 rrcurveto
          51 64 -118 hlineto
          -18 -52 -19 -54 -18 -54 -84 160 rcurveline
          -116 hlineto
          -6 -82 49 6 3 -128 -47 3 -5 -65 145 12 rlineto
          endchar
        </CharString>
        <CharString name="two">
          -71 583 172 rmoveto
          -294 -23 rlineto
          291 174 3 129 0 vvcurveto
          156 3 -130 31 -138 hhcurveto
          0 -139 0 -149 -71 vhcurveto
          23 -162 rlineto
          58 101 90 23 66 hhcurveto
          63 44 -22 -31 -120 -214 -119 -142 -63 hvcurveto
          -140 vlineto
          522 12 rlineto
          endchar
        </CharString>
        <CharString name="twosuperior">
          -345 305 328 rmoveto
          -144 -11 rlineto
          142 84 2 62 0 vvcurveto
          75 1 -62 15 -67 hhcurveto
          0 -66 0 -72 -34 vhcurveto
          11 -78 rlineto
          28 49 43 11 31 hhcurveto
          31 21 -11 -14 -58 -103 -57 -68 -31 hvcurveto
          -67 vlineto
          251 6 rlineto
          endchar
        </CharString>
        <CharString name="u">
          -106 callgsubr
          endchar
        </CharString>
        <CharString name="uacute">
          -106 callgsubr
          -262 761 -96 callsubr
        </CharString>
        <CharString name="ubreve">
          -106 callgsubr
          -342 705 -94 callsubr
        </CharString>
        <CharString name="ucircumflex">
          -106 callgsubr
          -285 758 -99 callsubr
        </CharString>
        <CharString name="udieresis">
          -106 callgsubr
          -183 625 -103 callgsubr
        </CharString>
        <CharString name="ugrave">
          -106 callgsubr
          -471 767 -71 callgsubr
        </CharString>
        <CharString name="uhungarumlaut">
          -106 callgsubr
          -410 754 -61 callgsubr
        </CharString>
        <CharString name="umacron">
          -106 callgsubr
          -212 660 -59 callgsubr
        </CharString>
        <CharString name="underscore">
          -11 638 -95 rmoveto
          -591 18 rlineto
          -186 vlineto
          591 31 rlineto
          endchar
        </CharString>
        <CharString name="uni00AD">
          -5 callgsubr
        </CharString>
        <CharString name="uni0312">
          -456 140 694 -28 callgsubr
          -15 45 rcurveline
          endchar
        </CharString>
        <CharString name="uni0315">
          -568 51 524 -102 callsubr
          15 -45 rcurveline
          endchar
        </CharString>
        <CharString name="uni0326">
          -442 114 -208 -102 callsubr
          15 -45 rcurveline
          endchar
        </CharString>
        <CharString name="uogonek">
          27 640 -94 -54 callgsubr
          -7 32 62 51 hvcurveto
          139 86 hlineto
          -106 callsubr
          53 hlineto
          -49 -42 -11 -42 -29 -51 callsubr
          endchar
        </CharString>
        <CharString name="uring">
          -106 callgsubr
          -261 662 -74 callsubr
        </CharString>
        <CharString name="utilde">
          -106 callgsubr
          -301 694 -97 callgsubr
        </CharString>
        <CharString name="v">
          -14 404 493 rmoveto
          -98 vlineto
          61 2 -82 -307 -146 400 10 callsubr
          112 -420 200 13 139 400 102 5 7 89 rlineto
          endchar
        </CharString>
        <CharString name="w">
          -85 callgsubr
          endchar
        </CharString>
        <CharString name="wacute">
          -85 callgsubr
          -337 246 -96 callsubr
        </CharString>
        <CharString name="wcircumflex">
          -85 callgsubr
          -407 229 -99 callsubr
        </CharString>
        <CharString name="wdieresis">
          -85 callgsubr
          -322 98 -103 callgsubr
        </CharString>
        <CharString name="wgrave">
          -85 callgsubr
          -581 236 -71 callgsubr
        </CharString>
        <CharString name="x">
          -28 646 497 rmoveto
          -195 3 -110 -156 -114 152 -200 -11 rlineto
          -93 vlineto
          113 7 114 -178 -104 -148 -123 11 rlineto
          -98 vlineto
          187 12 97 134 92 -143 243 9 rlineto
          97 vlineto
          -104 -18 -138 183 104 144 138 -3 rlineto
          endchar
        </CharString>
        <CharString name="y">
          -98 callgsubr
          endchar
        </CharString>
        <CharString name="yacute">
          -98 callgsubr
          -258 350 -96 callsubr
        </CharString>
        <CharString name="ycircumflex">
          -98 callgsubr
          -273 331 -99 callsubr
        </CharString>
        <CharString name="ydieresis">
          -98 callgsubr
          -168 204 -103 callgsubr
        </CharString>
        <CharString name="yen">
          237 602 331 rmoveto
          175 241 -80 callgsubr
          162 -222 -169 7 13 -127 207 7 18 -82 -42 callgsubr
          -132 5 26 93 170 7 11 85 rlineto
          endchar
        </CharString>
        <CharString name="ygrave">
          -98 callgsubr
          -475 332 -71 callgsubr
        </CharString>
        <CharString name="z">
          -57 callgsubr
          endchar
        </CharString>
        <CharString name="zacute">
          -57 callgsubr
          -187 547 -96 callsubr
        </CharString>
        <CharString name="zcaron">
          -106 571 198 rmoveto
          -35 -194 -499 -9 -7 53 329 368 -215 -3 rlineto
          -119 -110 vlineto
          10 197 491 3 22 -86 -339 -335 232 9 7 116 rlineto
          7 503 -87 callgsubr
        </CharString>
        <CharString name="zdotaccent">
          -57 callgsubr
          -207 401 -76 callsubr
        </CharString>
        <CharString name="zero">
          35 699 311 rmoveto
          176 -89 142 -242 -247 -85 -142 -176 -176 85 -143 247 260 71 143 176 vhcurveto
          -68 hmoveto
          -88 -49 -71 -214 -218 -46 71 88 87 49 71 215 208 55 -71 -87 vhcurveto
          endchar
        </CharString>
      <CharString index="0">
        -72 518 71 rmoveto
        -105 callgsubr
        243 -18 25 90 rlineto
        -230 144 -91 callgsubr
        return
      </CharString>
      <CharString index="1">
        27 707 75 rmoveto
        -106 callsubr
        264 hlineto
        return
      </CharString>
      <CharString index="2">
        39 139 4 61 0 vvcurveto
        3 62 -6 184 -255 -5 -102 callgsubr
        55 60 12 31 56 hvcurveto
        0 -6 -30 -3 -20 vhcurveto
        return
      </CharString>
      <CharString index="3">
        -90 452 202 rmoveto
        -93 callsubr
        120 136 59 2 callsubr
        hvcurveto
        -417 116 -63 callsubr
        return
      </CharString>
      <CharString index="4">
        -26 callsubr
        -36 -37 -30 -27 -32 -33 30 -27 37 36 30 27 33 vhcurveto
        -199 hmoveto
        -97 callsubr
      </CharString>
      <CharString index="5">
        rrcurveto
        0 -251 -6 -20 -181 vhcurveto
        158 8 rlineto
        19 95 85 -12 callsubr
        98 4 30 -39 -63 vvcurveto
        -22 -2 -22 -4 -24 vhcurveto
        3 -22 -28 2 -35 hhcurveto
        -99 -212 -22 -142 -90 104 -26 81 return
      </CharString>
      <CharString index="6">
        -34 658 489 rmoveto
        -220 10 rlineto
        0 -1 -18 -1 -27 vhcurveto
        22 -36 -47 21 -48 hhcurveto
        -176 -103 -97 -161 -136 89 -115 156 47 48 12 21 42 hvcurveto
        -76 -20 -42 -51 -78 hhcurveto
        -54 -57 32 39 -40 hvcurveto
        -43 -95 -69 callgsubr
        4 113 -8 106 114 vvcurveto
        86 12 rlineto
        -235 -295 rmoveto
        -1 -6 0 -6 -5 vvcurveto
        -31 -31 -37 -26 -37 hhcurveto
        -95 -27 120 66 63 30 120 89 38 45 -20 -24 37 hvcurveto
        -3 -79 -4 -103 -4 -69 rrcurveto
        return
      </CharString>
      <CharString index="7">
        -102 callsubr
        rrcurveto
        return
      </CharString>
      <CharString index="8">
        -100 callgsubr
        endchar
      </CharString>
      <CharString index="9">
        -11 678 487 rmoveto
        -335 12 -10 -104 111 4 rlineto
        -90 vlineto
        -46 0 -51 -2 -46 vhcurveto
        -59 -88 -74 -104 callsubr
        94 0 94 71 vhcurveto
        -87 -2 -11 -81 -133 hhcurveto
        -54 -52 17 24 -46 hvcurveto
        -42 -65 -69 callgsubr
        3 82 -17 160 -10 82 101 4 rcurveline
        return
      </CharString>
      <CharString index="10">
        rmoveto
        5 -78 -38 -6 0 vvcurveto
        -5 -40 -19 78 -76 hhcurveto
        0 -76 0 -15 -117 vhcurveto
        91 -14 rlineto
        64 34 -6 0 vhcurveto
        33 -5 23 -58 95 5 rrcurveto
        0 95 5 137 vvcurveto
        endchar
      </CharString>
      <CharString index="11">
        362 789 138 rmoveto
        141 442 161 13 -3 8 callsubr
        -154 144 12 -119 -322 -111 330 rlineto
        -83 hlineto
        -184 -356 -50 340 172 6 -95 callsubr
        94 3 115 -415 -108 6 -75 callgsubr
        346 13 -5 callsubr
        -43 2 106 325 66 -313 -49 3 -75 callgsubr
        346 13 2 124 rlineto
        return
      </CharString>
      <CharString index="12">
        139 722 742 rmoveto
        -21 -94 rlineto
        -77 57 -6 callsubr
        -1 callgsubr
        -216 -17 callgsubr
        99 -8 callgsubr
        272 0 85 90 vhcurveto
        -6 233 71 4 6 81 rlineto
        -489 -109 hlineto
        318 18 -7 -79 rlineto
        -102 -97 -151 -2 callsubr
        -93 84 128 153 153 38 151 3 hvcurveto
        0 152 3 132 -72 vhcurveto
        100 246 rlineto
        return
      </CharString>
      <CharString index="13">
        -143 -173 53 -38 220 138 rlineto
        endchar
      </CharString>
      <CharString index="14">
        291 145 rmoveto
        40 424 -92 callsubr
        rlineto
        return
      </CharString>
      <CharString index="15">
        -47 callsubr
        -55 -17 48 59 54 6 33 23 217 hvcurveto
        -241 10 -15 -117 104 6 return
      </CharString>
      <CharString index="16">
        rmoveto
        -4 -27 -5 -29 -5 -27 -31 -12 -45 -15 -49 -9 rrcurveto
        -48 -8 -41 28 31 vvcurveto
        61 127 9 49 19 18 -1 -1 15 vhcurveto
        return
      </CharString>
      <CharString index="17">
        4 -95 callsubr
        return
      </CharString>
      <CharString index="18">
        -73 callsubr
        -726 15 rlineto
        -184 vlineto
        124 8 21 -329 rlineto
        -145 -186 hlineto
        return
      </CharString>
      <CharString index="19">
        14 -148 -137 -8 0 vvcurveto
        -92 -3 -40 88 -11 90 401 72 rcurveline
        183 -19 -121 34 -99 hhcurveto
        return
      </CharString>
      <CharString index="20">
        rmoveto
        -132 34 -58 -148 -61 148 -76 -30 93 -162 rlineto
        134 hlineto
        endchar
      </CharString>
      <CharString index="21">
        175 785 253 rmoveto
        -1 -100 -79 -20 -178 171 183 34 91 90 6 94 rlinecurve
        134 -36 callsubr
        -148 103 21 27 -415 -139 8 -24 callsubr
        398 32 -9 100 -155 9 8 169 rlineto
        -1 24 23 0 22 hhcurveto
        28 28 1 2 25 hvcurveto
        174 -280 rlineto
        212 hlineto
        37 240 rlineto
        -528 102 rmoveto
        -14 -14 0 1 -14 hvcurveto
        11 218 rlineto
        10 56 45 5 55 hhcurveto
        112 50 -45 -36 6 hvcurveto
        -144 25 -218 -9 -100 hhcurveto
        return
      </CharString>
      <CharString index="22">
        257 702 503 rmoveto
        -98 vlineto
        59 3 -64 -308 -104 400 -251 -3 6 -95 73 3 -87 -305 -93 400 -251 -3 7 -95 122 6 70 -419 198 13 109 319 55 -332 199 13 115 411 93 4 6 89 rlineto
        return
      </CharString>
      <CharString index="23">
        -38 callgsubr
        -212 -83 89 109 110 95 89 200 235 60 -89 -110 vhcurveto
        return
      </CharString>
      <CharString index="24">
        -107 489 181 rmoveto
        -83 callsubr
        -170 -14 140 -104 154 hhcurveto
        41 136 0 116 89 hvcurveto
        return
      </CharString>
      <CharString index="25">
        rmoveto
        99 23 -132 -85 -62 -12 -129 -105 -104 -27 128 71 65 23 144 103 hvcurveto
        return
      </CharString>
      <CharString index="26">
        -29 callsubr
        374 -581 96 19 -82 callsubr
        return
      </CharString>
      <CharString index="27">
        135 11 -69 callsubr
        164 14 -213 -202 -103 208 110 -90 callgsubr
        136 4 return
      </CharString>
      <CharString index="28">
        -103 471 520 rmoveto
        -71 callsubr
        9 61 -56 153 -58 callsubr
        rlineto
        return
      </CharString>
      <CharString index="29">
        rmoveto
        59 17 58 41 69 vvcurveto
        58 -36 57 -65 -35 callsubr
        10 10 2 2 -35 callgsubr
        return
      </CharString>
      <CharString index="30">
        244 188 rmoveto
        60 6 72 10 72 vhcurveto
        -70 callgsubr
        -169 6 -184 219 56 75 15 58 78 vhcurveto
        -38 callsubr
        return
      </CharString>
      <CharString index="31">
        -40 callsubr
        -188 -106 84 128 153 180 41 151 hvcurveto
        -46 callgsubr
        return
      </CharString>
      <CharString index="32">
        rlineto
        -154 vlineto
        return
      </CharString>
      <CharString index="33">
        -53 callsubr
        -386 hlineto
        9 118 226 -18 rlineto
        return
      </CharString>
      <CharString index="34">
        vvcurveto
        -186 214 -6 155 -4 vhcurveto
        147 -4 73 -7 -71 vvcurveto
        -57 -47 -29 -122 -124 -111 30 51 -118 vhcurveto
        -63 -241 69 -20 29 86 return
      </CharString>
      <CharString index="35">
        rmoveto
        8 callgsubr
        132 11 rlineto
        41 -159 0 -110 0 vvcurveto
        -129 -100 -37 -126 -125 -110 23 157 13 vhcurveto
        2 21 2 23 4 24 rrcurveto
        -84 hlineto
        -3 -36 -2 -35 -29 vvcurveto
        -163 96 -145 194 312 32 246 280 27 -1 28 -2 26 vhcurveto
        143 12 rlineto
        return
      </CharString>
      <CharString index="36">
        rmoveto
        -130 -73 220 -138 53 38 rlineto
        endchar
      </CharString>
      <CharString index="37">
        226 7 3 126 -212 -17 rlineto
        18 111 19 87 0 vvcurveto
        -158 12 rlineto
        0 -18 -113 -13 -110 vhcurveto
        -118 -9 -10 -102 117 3 rlineto
        -1 -20 -1 -19 -14 vvcurveto
        return
      </CharString>
      <CharString index="38">
        rlineto
        -31 54 63 -21 65 hhcurveto
        177 137 95 167 6 hvcurveto
        return
      </CharString>
      <CharString index="39">
        -22 callsubr
        -21 callgsubr
        hvcurveto
        -61 callsubr
        return
      </CharString>
      <CharString index="40">
        -165 -142 -94 -189 -140 78 -118 181 return
      </CharString>
      <CharString index="41">
        -45 callsubr
        11 -129 -147 8 13 -127 143 7 11 -137 -40 callgsubr
        -500 39 rmoveto
        7 155 -32 callgsubr
        0 -49 -1 -67 5 vhcurveto
        6 150 146 8 14 85 rlineto
        endchar
      </CharString>
      <CharString index="42">
        -274 -35 rlineto
        -89 vlineto
        104 3 7 -307 -50 callgsubr
        return
      </CharString>
      <CharString index="43">
        15 238 89 rmoveto
        13 248 rlineto
        80 74 62 -1 -16 callgsubr
        17 -46 -59 vvcurveto
        -93 -15 -94 -14 -117 vhcurveto
        264 -10 14 97 -104 -6 rlineto
        13 71 8 75 85 vvcurveto
        111 -49 75 -131 vhcurveto
        0 -98 9 -98 -79 vhcurveto
        return
      </CharString>
      <CharString index="44">
        -103 280 110 rmoveto
        34 194 rlineto
        0 85 78 186 vhcurveto
        -13 162 -81 -15 -128 -91 -44 -46 rlinecurve
        16 109 -316 -28 rlineto
        -83 vlineto
        152 -11 -6 -271 -125 -1 14 -125 376 48 rlineto
        82 vlineto
        return
      </CharString>
      <CharString index="45">
        407 -60 callsubr
        -28 -35 -91 -90 -29 35 42 42 34 34 85 83 36 -34 -42 vhcurveto
        444 -204 -53 callgsubr
        -169 368 -39 callgsubr
        return
      </CharString>
      <CharString index="46">
        rmoveto
        -83 -173 53 -38 172 179 rlineto
        67 32 -96 callsubr
      </CharString>
      <CharString index="47">
        124 -423 return
      </CharString>
      <CharString index="48">
        rmoveto
        -343 -119 hlineto
        343 34 rlineto
        endchar
      </CharString>
      <CharString index="49">
        38 672 713 rmoveto
        -616 hlineto
        -20 -277 rlineto
        103 112 hlineto
        436 8 -539 -398 23 -154 rlineto
        627 hlineto
        20 277 rlineto
        -103 -113 hlineto
        -364 -7 457 398 rlineto
        return
      </CharString>
      <CharString index="50">
        -106 457 198 rmoveto
        -7 -116 -232 -9 339 335 -22 86 -491 -3 -10 -197 rlineto
        110 119 hlineto
        215 3 -329 -368 7 -53 499 9 35 194 rlineto
        return
      </CharString>
      <CharString index="51">
        24 15 -169 76 15 rlineto
        282 vlineto
        return
      </CharString>
      <CharString index="52">
        699 72 rmoveto
        -106 hlineto
        36 652 -323 -30 4 -84 151 16 -3 -172 -68 callsubr
        return
      </CharString>
      <CharString index="53">
        rmoveto
        -14 -38 -27 -4 -19 hhcurveto
        -38 -5 18 0 0 return
      </CharString>
      <CharString index="54">
        -60 callsubr
        -29 -35 -90 -86 -33 35 42 42 33 34 86 88 31 -34 -42 vhcurveto
        return
      </CharString>
      <CharString index="55">
        -36 callgsubr
        -190 6 -243 -25 callgsubr
        return
      </CharString>
      <CharString index="56">
        rmoveto
        17 242 rlineto
        83 77 61 4 -16 callgsubr
        17 -47 -59 vvcurveto
        return
      </CharString>
      <CharString index="57">
        -101 -4 rlineto
        -89 vlineto
        335 -2 9 105 return
      </CharString>
      <CharString index="58">
        rmoveto
        50 10 31 24 51 vvcurveto
        71 -77 15 -54 -48 -48 -5 -11 -46 vhcurveto
        12 -87 rlineto
        17 37 49 13 41 hhcurveto
        27 39 -6 -34 -38 -74 -8 -25 -1 hvcurveto
        1 -23 rlineto
        19 80 -7 -32 -28 -53 0 -19 -39 -50 10 17 -35 hvcurveto
        -8 -76 rlineto
        -13 32 42 -9 35 hhcurveto
        47 113 2 70 45 -40 24 -39 9 hvcurveto
        return
      </CharString>
      <CharString index="59">
        12 101 32 29 54 11 rlinecurve
        0 67 3 33 -49 vhcurveto
        18 113 rlineto
        -46 24 -60 -3 0 vvcurveto
        -57 callsubr
        return
      </CharString>
      <CharString index="60">
        -78 callgsubr
        21 -64 rcurveline
        endchar
      </CharString>
      <CharString index="61">
        0 122 0 105 -66 vhcurveto
        -14 -72 65 -16 131 349 return
      </CharString>
      <CharString index="62">
        rmoveto
        138 -256 2 callgsubr
        hlineto
        return
      </CharString>
      <CharString index="63">
        -139 4 -75 callgsubr
        672 26 61 289 rlineto
        return
      </CharString>
      <CharString index="64">
        179 118 116 177 return
      </CharString>
      <CharString index="65">
        -170 -31 callgsubr
        2 124 return
      </CharString>
      <CharString index="66">
        -123 -8 5 -88 364 -11 16 126 return
      </CharString>
      <CharString index="67">
        -50 5 -53 9 -47 12 rlinecurve
        -37 -179 rlineto
        -13 133 111 -4 78 hhcurveto
        230 238 85 289 hvcurveto
        return
      </CharString>
      <CharString index="68">
        rmoveto
        -380 -525 45 -24 409 508 rlineto
        return
      </CharString>
      <CharString index="69">
        -109 -87 -89 -208 return
      </CharString>
      <CharString index="70">
        -21 callsubr
        -27 callsubr
        return
      </CharString>
      <CharString index="71">
        -20 -97 rlineto
        -126 50 -123 -12 callsubr
        return
      </CharString>
      <CharString index="72">
        9 vhcurveto
        -5 -9 -16 -19 -45 -7 return
      </CharString>
      <CharString index="73">
        -423 -4 8 return
      </CharString>
      <CharString index="74">
        -75 callgsubr
        420 13 -5 callsubr
        return
      </CharString>
      <CharString index="75">
        rlineto
        106 12 66 -3 0 vvcurveto
        184 -8 59 -107 -96 vvcurveto
        -96 -107 -112 -210 vhcurveto
        return
      </CharString>
      <CharString index="76">
        7 -75 callgsubr
        420 13 return
      </CharString>
      <CharString index="77">
        rmoveto
        45 -43 37 -54 -13 callgsubr
        54 43 37 44 vhcurveto
        endchar
      </CharString>
      <CharString index="78">
        1 -12 -13 1 -13 hhcurveto
        -67 callgsubr
        -43 callgsubr
        hvcurveto
        1 vlineto
        0 1 0 1 vvcurveto
        return
      </CharString>
      <CharString index="79">
        rmoveto
        -41 -12 -41 -29 -48 vvcurveto
        -41 26 -40 45 34 28 24 28 28 -28 23 -34 -7 -7 -1 -2 -6 vhcurveto
        3 7 11 13 32 5 return
      </CharString>
      <CharString index="80">
        vhcurveto
        -56 -159 103 -35 10 79 rlineto
        return
      </CharString>
      <CharString index="81">
        -62 -103 rlineto
        -33 49 99 -6 32 hhcurveto
        return
      </CharString>
      <CharString index="82">
        -118 -259 vvcurveto
        return
      </CharString>
      <CharString index="83">
        364 -10 16 return
      </CharString>
      <CharString index="84">
        -84 callgsubr
        endchar
      </CharString>
      <CharString index="85">
        rmoveto
        -97 -9 8 222 -150 -36 10 -64 -19 callsubr
        endchar
      </CharString>
      <CharString index="86">
        193 -198 4 -110 2 return
      </CharString>
      <CharString index="87">
        -214 128 308 rmoveto
        309 127 -48 230 -353 -271 rlineto
        -171 vlineto
        382 return
      </CharString>
      <CharString index="88">
        -82 callgsubr
        endchar
      </CharString>
      <CharString index="89">
        rmoveto
        -247 -102 39 -183 282 216 rlineto
        137 vlineto
        -306 187 -31 -69 rlineto
        return
      </CharString>
      <CharString index="90">
        -25 callgsubr
        -189 return
      </CharString>
      <CharString index="91">
        0 vvcurveto
        55 -2 return
      </CharString>
      <CharString index="92">
        -50 callgsubr
        rlineto
        return
      </CharString>
      <CharString index="93">
        -33 callgsubr
        rlineto
        return
      </CharString>
      <CharString index="94">
        -54 -43 -37 -45 -44 43 -37 54 return
      </CharString>
      <CharString index="95">
        rmoveto
        69 18 -113 -46 -37 -11 -49 -50 -71 -21 99 47 39 15 60 51 hvcurveto
        return
      </CharString>
      <CharString index="96">
        -16 callgsubr
        27 7 callsubr
        251 -10 return
      </CharString>
      <CharString index="97">
        100 124 vhcurveto
        -45 2 rmoveto
        -92 -55 -75 -134 -135 -53 75 92 93 return
      </CharString>
      <CharString index="98">
        rlineto
        131 hlineto
        14 115 -208 -24 return
      </CharString>
      <CharString index="99">
        -164 271 vhcurveto
        0 return
      </CharString>
      <CharString index="100">
        3 -124 420 -13 rlineto
        return
      </CharString>
      <CharString index="101">
        3 691 105 rmoveto
        -97 -17 -195 return
      </CharString>
      <CharString index="102">
        -188 55 410 rmoveto
        -147 400 147 vlineto
        endchar
      </CharString>
      <CharString index="103">
        -91 -5 rlineto
        -74 vlineto
        353 -6 rlineto
        22 289 rmoveto
        0 return
      </CharString>
      <CharString index="104">
        hhcurveto
        -154 -123 -80 -173 return
      </CharString>
      <CharString index="105">
        195 -228 rlineto
        218 hlineto
        return
      </CharString>
      <CharString index="106">
        0 vvcurveto
        -6 callsubr
        return
      </CharString>
      <CharString index="107">
        rlineto
        148 hlineto
        16 165 -151 -10 19 229 return
      </CharString>
      <CharString index="108">
        71 217 vvcurveto
        111 -96 71 -191 2 vhcurveto
        0 return
      </CharString>
      <CharString index="109">
        rlineto
        -256 return
      </CharString>
      <CharString index="110">
        110 4 return
      </CharString>
      <CharString index="111">
        0 vvcurveto
        -191 return
      </CharString>
      <CharString index="112">
        396 rmoveto
        return
      </CharString>
      <CharString index="113">
        247 rmoveto
        return
      </CharString>
      <CharString index="114">
        rmoveto
        77 57 -20 -55 6 hvcurveto
        13 -114 return
      </CharString>
      <CharString index="115">
        -34 callgsubr
        -155 return
      </CharString>
      <CharString index="116">
        -10 14 117 return
      </CharString>
      <CharString index="117">
        hhcurveto
        -50 callsubr
        return
      </CharString>
      <CharString index="118">
        rmoveto
        3 -97 -81 -4 rlineto
        endchar
      </CharString>
</ttFont>
